<?xml version="1.0" encoding="UTF-8" standalone="no"?>
<svg
   width="500"
   height="250"
   version="1.1"
   id="svg904"
   sodipodi:docname="roads001_inkscape.svg"
   inkscape:version="1.2.2 (b0a8486541, 2022-12-01)"
   xmlns:inkscape="http://www.inkscape.org/namespaces/inkscape"
   xmlns:sodipodi="http://sodipodi.sourceforge.net/DTD/sodipodi-0.dtd"
   xmlns="http://www.w3.org/2000/svg"
   xmlns:svg="http://www.w3.org/2000/svg">
  <defs
     id="defs908">
    <filter
       inkscape:collect="always"
       style="color-interpolation-filters:sRGB"
       id="filter9097"
       x="-0.0087096152"
       y="-0.017809687"
       width="1.0174192"
       height="1.0356194">
      <feGaussianBlur
         inkscape:collect="always"
         stdDeviation="1.7419231"
         id="feGaussianBlur9099" />
    </filter>
    <filter
       inkscape:collect="always"
       style="color-interpolation-filters:sRGB"
       id="filter9097-2"
       x="-0.0087096155"
       y="-0.017809687"
       width="1.0174192"
       height="1.0356194">
      <feGaussianBlur
         inkscape:collect="always"
         stdDeviation="1.7419231"
         id="feGaussianBlur9099-4" />
    </filter>
    <filter
       inkscape:collect="always"
       style="color-interpolation-filters:sRGB"
       id="filter9097-3"
       x="-0.0087096152"
       y="-0.017809687"
       width="1.0174192"
       height="1.0356194">
      <feGaussianBlur
         inkscape:collect="always"
         stdDeviation="1.7419231"
         id="feGaussianBlur9099-9" />
    </filter>
    <filter
       inkscape:collect="always"
       style="color-interpolation-filters:sRGB"
       id="filter9097-30"
       x="-0.0087096152"
       y="-0.017809687"
       width="1.0174192"
       height="1.0356194">
      <feGaussianBlur
         inkscape:collect="always"
         stdDeviation="1.7419231"
         id="feGaussianBlur9099-1" />
    </filter>
    <filter
       inkscape:collect="always"
       style="color-interpolation-filters:sRGB"
       id="filter9097-5"
       x="-0.0087096152"
       y="-0.017809687"
       width="1.0174192"
       height="1.0356194">
      <feGaussianBlur
         inkscape:collect="always"
         stdDeviation="1.7419231"
         id="feGaussianBlur9099-49" />
    </filter>
  </defs>
  <sodipodi:namedview
     id="namedview906"
     pagecolor="#e93b3b"
     bordercolor="#666666"
     borderopacity="1.0"
     inkscape:showpageshadow="2"
     inkscape:pageopacity="0"
     inkscape:pagecheckerboard="0"
     inkscape:deskcolor="#d1d1d1"
     showgrid="false"
     inkscape:zoom="3.284"
     inkscape:cx="262.33252"
     inkscape:cy="89.677223"
     inkscape:window-width="2494"
     inkscape:window-height="1371"
     inkscape:window-x="66"
     inkscape:window-y="32"
     inkscape:window-maximized="1"
     inkscape:current-layer="svg904" />
  <path
     id="rect2-3-7"
     style="mix-blend-mode:normal;fill:#32324a;fill-opacity:1;fill-rule:evenodd;stroke:none;stroke-width:1;stroke-linecap:round;stroke-linejoin:round;stroke-dashoffset:19.02;stroke-opacity:1;filter:url(#filter9097-2)"
     d="m 65.414075,12.80085 v 10 h 10 10 10 9.999995 v -10 h -9.999995 -10 -10 z m 149.999985,10 v 10 h -10 -10 -10 -10 -10 v 9.66601 h -3.44531 v 10 0.33399 h -6.55469 -10 -10 v -10 -10 h -10 -9.99999 -3.84375 v -6.24024 h -10 v 10 10 10 h -9.999995 -10 v -10 -10 -10 h -10 v 10 h -10.000004 -10 -10 v 10 10 9.999999 h 10 v 10 10 6.24024 h -6.15625 -10 v 10.000001 10.00001 10 10 h 10 10 10.000004 v -10 h 10 10 v 10 h 10 v 10 10 10 h 9.999995 v -10 -10 -10 h 10 9.99999 v -10 -10 h 10 10 v -10.00001 h 10 10 V 92.800849 h -10 -10 -10 v 10.000001 h -10 v -10.000001 -10 -10 -10 h 10 10 10 6.55469 v 9.66601 10 10 h 10 10 10 10 10 10 10 v 10.000001 10.00001 h 10 v 10 h -10 -10 v 10 h 10 10 10 10 v -10 h -10 v -10 -10.00001 h -10 V 92.466859 h 10 10 10 v -10 h 10 v 10 10.000001 10.00001 h -10 v 10 10 h 10 v -10 h 10 v -10 -10.00001 -10.000001 -10 -8.90039 h 7.41601 v -0.76562 h 6.0293 v 10 10 10.000001 h -10 v 10.00001 h 10 10 v -10.00001 h 10 10 10 10 v 10.00001 h -10 -10 -10 v 10 h -10 v 10 10 h -10 -10 -10 -10 -10 -10 v 10 h 10 v 10 10 h -10 v -10 h -10 -10 -10 v -10 h 10 v -10 h -10 -10 v 10 10 h -10 -10 v 10 10 10 10 h -10 -10 v 10 h 10 10 v 10 h 10 10 v 10 10 h 10 10 10 10 10 10 v -10 -10 h 10 10 10 v 10 10 h 10 10 10 10 v -10 -10 -10 h -10 v -10 -10 h -10 -10 v -10 h 10 10 10 v 10 10 h 10 10 v 10 10 h 2.29101 v 9.73828 h 10 10 v 10 h 10 10 10 10 v -10 h -10 -10 -10 v -10 -10 h 10 10 10 v -10 h -10 -10 -10 v -10 -10 -10 h 10 10 10 v -10 -10 -10 h -10 v -10 h -10 -10 -10 -10 v 10 10 10 h 10 v 10 10 10 h -2.29101 v -9.73828 -10 h -10 -10 -10 -10 -10 v -10 -10 -10 h -10 v -10 h 10 v -10 h 10 10 10 v -10 -10.00001 -10.000001 -10 h 10 10 10 10 10 v -10 h 10 v -10 -9.999999 -10 -10 h 10.00001 10 v 10 h 10 10 10 10 v 10 9.999999 10 10 10 10.000001 10.00001 h -10 -10 -10 -10 v 10 10 10 h 10 v -10 -10 h 10 v 10 10 h 10 10 v 10 h -10 -10 -10 -10 v 10 h 10 v 10 10 10 h -10 v 10 h 10 10 v -10 h 10 10 v 10 10 10 h -10 -10 -10 -10 v 10 h 10 10 10 10 10 v -10 h 10 10 v -10 -10 -10 -10 -10 -10 -10 -10 -10 -10 -10 h -10 -10 V 102.80085 92.800849 h 10 10 v -10 -10 -10 -9.999999 -10 -10 -10 h -10 -10 -10 v 10 h -10 -10 -10 v -10 h -10 -10 -10.00001 -10 v 10 10 10 9.999999 h -10 v 10 h -10 v -10 h -6.0293 v -9.234379 -10 h 10 10 v -10 h -10 -10 -10 -10 -10 v 10 h -10 -10 -10 -10 -10 -10 -10 v 10 9.999999 8.90039 h -7.41601 -10 -10 v 10 h -10 -10 v -10 -10 -9.666009 h 3.44531 v -0.33399 h 6.55469 3.44531 v 0.33399 h 10 v -10 h 10 10 10 v -10 h -10 -10 -10 v -10 h -10 -10 -10 -10 z m 10,10 h 10 v 9.66601 h -3.44531 -6.55469 z m 20,0 h 10 v 9.66601 h -3.44531 -6.55469 z m 250.00002,0 h 10 v 10 10 9.999999 10 10 h -10 v -10 -10 -9.999999 -10 z m -383.84376,10 h 3.84375 9.99999 v 10 h -9.99999 v 9.999999 10 h -3.84375 v -6.24024 -9.999999 -10 z m 257.81444,0.76562 h 10 v 10 9.999999 9.23438 h -3.9707 v -10 h -6.0293 V 53.56647 Z M 51.570321,46.56061 h 10 10.000004 v 10 h -10.000004 -10 z m 123.843739,5.90625 h 6.55469 10 10 v 9.999999 10 h 10 10 10 v 10 h -10 -10 -10 -10 -10 -10 v -10 -10 -9.666009 h 3.44531 z m 36.55469,0 h 3.44531 v 0.33399 h 10 v -0.33399 h 6.55469 v 9.999999 h -10 -10 z m 87.41601,1.09961 h 10 10 v 9.999999 9.23438 h -3.9707 v -10 h -10 -6.0293 z m 30,0 h 10 10 10 v 9.999999 h -10 -3.9707 v -0.76562 h -10 v 0.76562 h -6.0293 z M 61.570321,66.560609 h 10.000004 v 10 10 H 61.570321 v -10 z m 20.000004,0 h 10 9.999995 v 10 10 h -9.999995 -10 v -10 z m 263.843735,7.00586 h 3.9707 6.0293 v 9.23438 10 h -10 v -10 z m -233.84374,9.23438 h 3.84375 v 10 10.000001 10.00001 10 h -10 -9.999995 v -10 -10.00001 -6.240241 h 6.156245 10 v -10 z m 203.84374,0 h 10 10 v 10 h -10 -10 z M 55.414071,96.560609 h 6.15625 10.000004 10 3.84375 v 6.240241 10.00001 h -10 -10 -10.000004 v 10 h -10 v -10 -10.00001 h 10 z M 475.41407,122.80086 h 10.00001 10 10 v 10 h -10 -10 -10.00001 z m -87.709,19.73828 h 10 10 v 10 h 10 v 10 h -10 -10 v -10 h -10 z m 107.70901,0.26172 h 10 v 10 10 10 10 h -10 v -10 -10 -10 z m -220.00002,10 h 10 10 10 10 10 v 10 10 h -10 -10 -10 -10 v 10 h -10 v -10 -10 z m 190.00001,10 h 10 10.00001 v 10 10 h -10.00001 -10 v -10 z m -373.013665,4.73828 v 10 h 9.999995 v 10 h 10 9.99999 10 10 v 10 h 10 v 10 10 h -10 -10 -10 -9.99999 v 10 10 h -10 v -10 -10 -10 h -9.999995 -10 v -10 h -10 -10.000004 -10 -10 v 10 10 10 h 10 10 10.000004 v 10 10 h 10 10 9.999995 10 9.99999 10 10 10 10 v -10 -10 -10 h 10 v -10 h -10 v -10 -10 h -10 v -10 h -10 -10 -10 -9.99999 v -10 h -10 z m 113.013655,5.26172 h 10 v 10 10 h -10 v -10 z m 20,0 h 10 10 v 10 10 10 10 h -10 -10 -10 -10 v -10 h 10 10 v -10 -10 z m 30,10 h 10 v 10 h 10 v 10 10 h -10 -10 v -10 -10 z m 40,0 h 10 v 10 10 10 h -10 -10 v -10 -10 h 10 z m 60,0 h 10 10 v 9.73828 h -7.70899 v 0.26172 h -2.29101 -10 z m 140.00001,10 h 10 v 10 10 h -10 v -10 z m -110.00001,9.73828 h 2.29101 v 10 10 h -2.29101 v -9.73828 h -10 v -10 h 10 z m -70,0.26172 h 10 v 10 10 h 10 v 10 h -10 -10 v -10 -10 z m -263.013659,4.73828 h 10 10.000004 v 10 h -10.000004 -10 z m 30.000004,10 h 10 v 10 10 h -10 v -10 z m 143.013655,5.26172 h 10 10 10 10 v 10 h -10 -10 -10 -10 z m -103.01367,4.73828 h 10 10 10 v 10 h -10 -10 -10 z"
     transform="matrix(-0.81796731,-0.00802091,0.00254739,-0.84464657,436.01742,226.72198)" />
  <path
     id="rect2-9"
     style="fill:#20696c;fill-opacity:1;fill-rule:evenodd;stroke-width:0.831212;stroke-linecap:round;stroke-linejoin:round;stroke-dashoffset:19.02"
     d="m 386.99323,220.93534 0.0255,-8.44647 0.0255,-8.44647 8.17967,0.0802 8.17968,0.0802 8.17967,0.0802 0.0255,-8.44645 0.0255,-8.44647 0.0255,-8.44647 -8.17966,-0.0802 0.0255,-8.44647 0.0255,-8.44646 0.0255,-8.44645 8.17966,0.0802 0.0255,-8.44646 0.0255,-8.44647 0.0255,-8.44646 0.0255,-8.44647 -8.17968,-0.0802 -8.17968,-0.0802 -8.17966,-0.0802 -0.0255,8.44647 -8.17967,-0.0802 -8.17968,-0.0802 0.0255,-8.44647 -8.17969,-0.0801 0.0255,-8.44645 0.0255,-8.44647 0.0255,-8.446466 0.0255,-8.446464 -8.17966,-0.08019 0.0255,-8.446452 -8.17968,-0.08019 -8.17967,-0.08019 -8.17967,-0.08019 -8.17969,-0.08019 0.0255,-8.446465 -8.17967,-0.08019 0.0255,-8.446465 0.0255,-8.446464 8.17968,0.08021 8.17967,0.08021 8.17968,0.08022 8.17967,0.08021 0.0255,-8.446467 0.0255,-8.446465 8.17969,0.08022 -0.0255,8.446465 -0.0255,8.446465 -0.0255,8.446466 8.17966,0.08019 8.17968,0.08019 -0.0255,8.446451 8.17967,0.08019 8.17969,0.08019 8.17966,0.08019 8.17967,0.08019 0.0255,-8.446466 0.0255,-8.446468 0.0255,-8.446466 -8.17968,-0.08022 -8.17966,-0.08021 -8.17967,-0.08021 0.0255,-8.446467 0.0255,-8.446465 -8.17969,-0.08022 -8.17966,-0.08021 -8.17967,-0.08021 -8.17967,-0.08022 -8.17967,-0.08021 -8.17967,-0.08022 -8.17967,-0.08021 -8.17969,-0.08021 -8.17966,-0.08022 -0.0255,8.446466 -0.0255,8.446467 -0.0255,8.446464 -8.17967,-0.08021 -8.17967,-0.08021 -8.17967,-0.08022 0.0255,-8.446465 -8.17967,-0.08021 -8.17966,-0.08021 0.0255,-8.446465 0.0255,-8.446465 -8.17967,-0.08022 -8.17968,-0.08021 -8.17967,-0.08021 -8.17967,-0.08022 -8.17967,-0.08021 -8.17967,-0.08022 -0.0255,8.446466 -0.0255,8.446465 -8.17967,-0.08021 -8.17968,-0.08021 -8.17967,-0.08022 0.0255,-8.446465 0.0255,-8.446466 -8.17966,-0.08021 -8.17969,-0.08021 -8.17967,-0.08022 -8.17966,-0.08021 -0.0255,8.446465 -0.0255,8.446466 -0.0255,8.446461 8.17966,0.08021 -0.0255,8.446471 -0.0255,8.446464 8.17966,0.08019 8.17968,0.08019 -0.0255,8.446465 -8.17967,-0.08019 -8.17967,-0.08019 -8.17968,-0.08019 0.0255,-8.446464 0.0255,-8.446465 -8.17966,-0.08019 -8.17967,-0.08019 0.0255,-8.446462 0.0255,-8.446461 -8.17966,-0.08021 -8.17967,-0.08021 -8.17968,-0.08022 -8.17969,-0.08021 0.0255,-8.446466 -8.17968,-0.08022 -8.179658,-0.08021 -8.179683,-0.08021 -8.179671,-0.08022 -8.179673,-0.08021 -8.179672,-0.08021 -8.179682,-0.08022 -8.179673,-0.08021 -8.179675,-0.08021 -0.02547,8.446461 -8.179671,-0.08022 -8.179672,-0.08021 -0.02548,8.446465 -0.02547,8.44646 -0.02548,8.446465 -0.02547,8.446465 -0.02547,8.446477 -0.02548,8.446465 -0.02547,8.446465 -0.02547,8.446454 -0.02548,8.44647 -0.02547,8.44646 -0.02547,8.44646 8.17967,0.0802 8.179676,0.0802 -0.02547,8.44646 -0.02548,8.44647 -8.179674,-0.0802 -8.179673,-0.0802 -0.02547,8.44646 -0.02548,8.44646 -0.02547,8.44647 -0.02547,8.44647 -0.02548,8.44646 -0.02547,8.44647 -0.02548,8.44647 8.179685,0.0801 8.179672,0.0802 8.179671,0.0802 0.02547,-8.44649 8.179671,0.0802 8.179672,0.0802 8.179684,0.0802 -0.02548,8.44647 8.179685,0.0802 8.179671,0.0802 8.179676,0.0802 8.179674,0.0802 8.17968,0.0802 8.17967,0.0802 8.17967,0.0802 8.17968,0.0802 8.17966,0.0802 0.0255,-8.44647 8.17966,0.0802 8.17967,0.0802 8.17967,0.0802 8.17968,0.0802 8.17968,0.0802 8.17966,0.0802 8.17968,0.0802 8.17966,0.0802 8.17969,0.0802 8.17967,0.0802 -0.0255,8.44647 8.17967,0.0802 8.17967,0.0802 8.17968,0.0802 8.17968,0.0801 8.17966,0.0802 0.0255,-8.44647 8.17966,0.0802 8.17968,0.0802 8.17967,0.0802 8.17968,0.0802 8.17967,0.0802 0.0255,-8.44647 0.0255,-8.44646 8.17968,0.0802 8.17968,0.0801 8.17966,0.0802 -0.0255,8.44645 -0.0255,8.44648 8.17968,0.0802 8.17969,0.0802 8.17965,0.0802 -0.0255,8.44646 -0.0255,8.44647 8.17966,0.0802 8.17969,0.0802 8.17966,0.0802 z m -8.15419,-8.52669 -8.17967,-0.0802 -8.17969,-0.0802 0.0255,-8.44647 0.0255,-8.44647 0.0255,-8.44647 8.17966,0.0802 8.17967,0.0802 -0.0255,8.44648 -0.0255,8.44647 z m -122.66962,-9.64959 -8.17967,-0.0802 0.0255,-8.44647 0.0255,-8.44645 8.17967,0.0802 -0.0255,8.44647 z m -16.35934,-0.16041 -8.17968,-0.0802 0.0255,-8.44647 0.0255,-8.44647 8.17969,0.0802 -0.0255,8.44646 z m -106.33577,-1.0427 -8.17966,-0.0802 0.0255,-8.44646 0.0255,-8.44647 0.0255,-8.44646 0.0255,-8.44647 8.17968,0.0802 -0.0255,8.44646 -0.0255,8.44649 -0.0255,8.44646 z m -16.35932,-0.16043 -8.17969,-0.0802 -8.17967,-0.0802 0.0255,-8.44648 0.0254,-8.44647 0.0254,-8.44646 8.17967,0.0801 0.0255,-8.44645 8.17967,0.0802 -0.0255,8.44644 -0.0255,8.44649 -0.0255,8.44646 z m -24.539031,-0.24061 -8.179677,-0.0802 -8.179669,-0.0802 0.02547,-8.44647 -8.179671,-0.0801 -8.179672,-0.0802 -8.179672,-0.0802 -8.179671,-0.0802 0.02547,-8.44647 0.02547,-8.44644 0.02548,-8.44647 0.02547,-8.44646 0.02547,-8.44647 0.02548,-8.44647 0.02547,-8.44648 8.179671,0.0802 8.179673,0.0802 8.179682,0.0802 8.179673,0.0801 0.02547,-8.44647 0.02548,-8.44647 8.17966,0.0802 -0.02547,8.44645 8.17967,0.0802 8.179694,0.0802 8.17967,0.0801 8.17967,0.0802 0.0255,-8.44648 0.0255,-8.44646 0.0255,-8.44646 -8.17968,-0.08019 0.0255,-8.446477 0.0255,-8.446465 0.0255,-8.446464 8.17968,0.08019 8.17966,0.08019 -0.0255,8.446464 8.1797,0.08019 8.17966,0.08019 8.17967,0.08019 8.17966,0.08019 8.17969,0.08019 -0.0255,8.446464 -0.0255,8.446468 -0.0255,8.44646 8.17969,0.0802 -0.0255,8.44648 -8.17966,-0.0802 -0.0255,8.44647 -8.17966,-0.0802 -8.17968,-0.0802 -8.17967,-0.0802 -0.0255,8.44646 -0.0255,8.44646 -0.0255,8.44647 -0.0255,8.44646 -8.17968,-0.0802 -8.17968,-0.0802 -8.17966,-0.0802 -8.17967,-0.0802 -8.17968,-0.0802 -0.0254,8.44646 -8.179677,-0.0802 -0.02547,8.44648 -0.02547,8.44645 -0.02548,8.44648 z m -57.257718,-0.56148 -8.179672,-0.0802 0.02547,-8.44647 0.02548,-8.44647 0.02547,-8.44646 0.02547,-8.44647 0.02548,-8.44645 8.179674,0.0802 -0.02548,8.44647 -0.02547,8.44645 -0.02547,8.44647 -0.02548,8.44645 z m 368.110769,-4.83706 -8.17967,-0.0802 -8.17969,-0.0802 0.0255,-8.44646 8.17967,0.0802 8.17968,0.0802 z m -49.07803,-0.48127 -8.17967,-0.0802 -8.1797,-0.0802 0.0255,-8.44646 8.17967,0.0802 0.0255,-8.44647 0.0255,-8.44646 8.17967,0.0802 -0.0255,8.44647 -0.0255,8.44645 z m -57.25772,-0.56146 -8.17967,-0.0802 -8.17967,-0.0802 -8.17967,-0.0801 -8.17968,-0.0802 0.0255,-8.44646 8.17967,0.0802 8.17968,0.0802 8.17967,0.0802 8.17967,0.0802 z m -73.61706,-0.72188 -8.17968,-0.0802 -8.17966,-0.0802 -8.17967,-0.0802 0.0255,-8.44646 0.0255,-8.44645 0.0255,-8.44648 -8.17967,-0.0802 0.0255,-8.44647 0.0255,-8.44646 0.0255,-8.44647 8.17966,0.0802 -0.0255,8.44647 -0.0255,8.44646 8.17967,0.0802 8.17968,0.0802 8.17967,0.0802 0.0255,-8.44647 8.17966,0.0801 8.17967,0.0802 -0.0255,8.44647 -0.0255,8.44648 -0.0255,8.44645 -8.17969,-0.0802 -8.17966,-0.0802 -0.0255,8.44645 z m -32.71868,-0.32083 -8.17968,-0.0802 -8.17967,-0.0802 0.0255,-8.44646 0.0255,-8.44648 -8.17967,-0.0802 0.0255,-8.44646 8.17968,0.0802 8.17968,0.0802 -0.0255,8.44647 8.17966,0.0801 -0.0255,8.44647 z m -24.53903,-0.24061 -8.17968,-0.0802 -8.17966,-0.0801 -8.17967,-0.0802 0.0255,-8.44647 8.17969,0.0802 8.17966,0.0802 8.17967,0.0802 z m 229.08178,-14.6471 -8.17966,-0.0802 0.0255,-8.44647 0.0255,-8.44646 8.17968,0.0802 -0.0255,8.44648 z m -16.35932,-0.16042 -8.17969,-0.0802 -8.17967,-0.0802 0.0255,-8.44644 0.0255,-8.44647 8.17968,0.0802 8.17967,0.0802 -0.0255,8.44646 z m -40.89838,-0.40105 -8.17967,-0.0802 -8.17967,-0.0802 -8.17968,-0.0802 -8.17966,-0.0802 0.0255,-8.44646 0.0255,-8.44646 0.0255,-8.44647 8.17968,0.0802 8.17967,0.0802 8.17966,0.0802 0.0255,-8.44646 8.17967,0.0802 -0.0255,8.44647 -0.0255,8.44646 -0.0255,8.44647 z m -40.89836,-0.40104 -8.17968,-0.0802 -8.17966,-0.0801 -8.17968,-0.0802 0.0255,-8.44646 0.0255,-8.44647 -8.17968,-0.0802 -8.17966,-0.0802 -8.17967,-0.0802 0.0255,-8.44645 8.17969,0.0802 8.17967,0.0802 8.17967,0.0802 8.17969,0.0802 8.17966,0.0802 8.17967,0.0802 -0.0255,8.44645 -0.0255,8.44647 z m -32.71869,-0.32083 -8.17968,-0.0802 -8.17968,-0.0802 0.0255,-8.44645 8.17966,0.0802 8.17968,0.0801 z m -106.33575,-1.0427 -8.17968,-0.0802 -8.17967,-0.0801 0.0255,-8.44647 8.17967,0.0802 0.0255,-8.44647 0.0255,-8.44646 8.17968,0.0802 -0.0255,8.44646 -0.0255,8.44647 z m 196.36309,-14.96793 -8.17967,-0.0802 0.0255,-8.44646 0.0255,-8.44647 0.0255,-8.44646 0.0255,-8.44646 8.17965,0.0802 8.1797,0.0802 -0.0255,8.44647 -0.0255,8.44647 -0.0255,8.44646 -8.17967,-0.0802 z m -171.77313,-1.68439 -8.17967,-0.0802 -8.17967,-0.0801 0.0255,-8.44648 8.17969,0.0802 8.17967,0.0802 z m 212.69698,-6.36105 -8.17969,-0.0802 -8.17966,-0.0802 -8.17967,-0.0802 0.0255,-8.44647 0.0255,-8.44645 8.17967,0.0802 8.17966,0.0802 8.17969,0.0802 0.0255,-8.44646 8.17968,0.0802 -0.0255,8.44646 -0.0255,8.44647 -8.17968,-0.0802 z m -179.95281,-1.76458 -8.17968,-0.0802 0.0255,-8.44647 0.0255,-8.44646 0.0255,-8.44646 8.17968,0.0801 0.0255,-8.44644 0.0255,-8.44647 8.17965,0.0802 -0.0255,8.44647 8.17969,0.0802 -0.0255,8.44646 -0.0255,8.44648 8.17968,0.0802 -0.0255,8.44646 -8.17967,-0.0802 -8.17969,-0.0802 -8.17967,-0.0802 z m 106.36123,-7.40375 -8.17969,-0.0802 -8.17966,-0.0802 -8.17968,-0.0802 -8.17967,-0.0802 -8.17968,-0.0802 -8.17966,-0.0802 -8.17967,-0.0802 -8.17969,-0.0802 -8.17966,-0.0802 0.0255,-8.44647 0.0255,-8.44646 -8.17965,-0.0802 0.0255,-8.44645 8.17969,0.0802 8.17966,0.0802 0.0255,-8.44646 8.17966,0.0802 0.0255,-8.44646 0.0255,-8.446466 8.17966,0.08019 8.17968,0.08019 0.0255,-8.446464 0.0255,-8.446466 0.0255,-8.446464 0.0255,-8.446465 8.17968,0.08019 8.17968,0.08019 8.17967,0.08019 -0.0255,8.446464 -0.0255,8.446466 8.17966,0.08019 -0.0255,8.446465 8.17968,0.08019 8.17967,0.08019 8.17968,0.08019 8.17966,0.08019 -0.0255,8.446465 8.17966,0.08019 -0.0255,8.446455 -0.0255,8.44647 -0.0255,8.44646 -8.17967,-0.0802 -8.17967,-0.0802 -0.0255,8.44646 -0.0255,8.44648 -8.17969,-0.0802 -8.17968,-0.0802 z m -139.05445,-1.36354 -8.17968,-0.0801 -8.17967,-0.0802 -8.17968,-0.0802 -8.17966,-0.0802 0.0255,-8.44647 8.17967,0.0802 8.17967,0.0802 8.17968,0.0802 0.0255,-8.44646 8.17967,0.0801 0.0255,-8.44646 0.0255,-8.44646 8.17967,0.0801 8.17968,0.0802 8.17968,0.0802 -0.0255,8.44645 -8.17967,-0.0802 -0.0255,8.44646 -0.0255,8.44646 -8.17967,-0.0801 -8.17967,-0.0802 z m -114.464484,-18.01585 -8.179683,-0.0802 0.02548,-8.44646 0.02547,-8.44645 -8.179672,-0.0802 -8.179672,-0.0802 0.02547,-8.446466 8.179685,0.08019 8.179671,0.08019 8.179672,0.08019 8.179672,0.08019 -0.02547,8.446466 -8.179672,-0.0802 -0.02547,8.44646 z m -16.359354,-0.16042 -8.179673,-0.0802 -8.179671,-0.0802 -8.179674,-0.0802 0.02548,-8.44647 8.179674,0.0802 8.179672,0.0802 8.179672,0.0801 z m 57.283208,-7.885 -8.17968,-0.0802 -8.179688,-0.0802 0.02548,-8.44646 -8.179672,-0.0802 0.02547,-8.446453 8.179672,0.08019 8.179688,0.08019 -0.0254,8.446463 8.17969,0.0802 z m 139.0799,-7.08292 -8.17967,-0.0802 -8.17966,-0.0802 0.0255,-8.44647 -8.17967,-0.0802 0.0255,-8.446467 0.0255,-8.446464 8.17967,0.08019 -0.0255,8.446466 8.17967,0.08019 8.17967,0.08019 8.17967,0.08019 -0.0255,8.446465 -8.17967,-0.0802 z m -212.671503,-2.08543 -8.179674,-0.0802 0.02547,-8.446468 0.02548,-8.446477 0.02547,-8.446465 0.02547,-8.446465 8.179673,0.08019 -0.02547,8.446465 -0.02547,8.446477 -0.02548,8.446465 z m 179.978293,-6.68187 -8.17968,-0.0802 -8.17967,-0.0802 -8.17968,-0.0802 -8.17966,-0.0802 -8.17968,-0.0802 0.0255,-8.446464 0.0255,-8.446453 8.17967,0.08019 8.17968,0.08019 8.17967,0.08019 8.17968,0.08019 0.0255,-8.446464 8.17969,0.08019 -0.0255,8.446478 -0.0255,8.446464 z m -114.48995,-9.569387 -8.179679,-0.08019 -8.179683,-0.08019 -8.179659,-0.08019 -8.179685,-0.08019 0.02548,-8.446466 0.02547,-8.446464 0.02547,-8.446465 8.179684,0.08019 8.179659,0.08019 8.179684,0.08019 8.179679,0.08019 -0.0254,8.446465 -0.0255,8.44649 z m -40.898378,-0.401033 -8.17967,-0.08019 -8.179673,-0.08019 0.02547,-8.446465 0.02547,-8.446465 8.179683,0.08019 8.179673,0.08019 -0.02548,8.446477 z m 212.696998,-6.361056 -8.17969,-0.08019 0.0255,-8.446465 0.0255,-8.446465 8.17966,0.08019 -0.0255,8.446466 z m -16.35936,-0.160425 -8.17967,-0.08019 -8.17969,-0.08019 0.0255,-8.446478 0.0255,-8.446464 0.0255,-8.446453 0.0255,-8.446465 8.17966,0.08021 8.17968,0.08021 8.17967,0.08022 8.17968,0.08021 -0.0255,8.446462 -8.17967,-0.08019 -8.17968,-0.08019 -0.0255,8.446465 -0.0255,8.446464 z m -24.51354,-8.687085 -8.17967,-0.08019 0.0255,-8.446464 -8.17967,-0.08019 0.0255,-8.446465 0.0255,-8.446457 8.17967,0.08022 8.17968,0.08021 -0.0255,8.446461 -0.0255,8.446465 z m -32.71869,-0.320827 -8.17969,-0.08019 0.0255,-8.446465 0.0255,-8.446464 0.0255,-8.446461 8.17967,0.08022 8.17967,0.08021 -0.0255,8.446465 -0.0255,8.446465 -8.17967,-0.08019 z m -49.07805,-0.481252 -8.17966,-0.08019 -8.17969,-0.08019 0.0255,-8.446464 8.17966,0.08019 8.17967,0.08019 z m -24.51354,-8.687096 -8.17968,-0.08019 -8.17967,-0.08019 0.0255,-8.446465 0.0255,-8.446463 8.17968,0.08021 8.17967,0.08022 8.17967,0.08021 -0.0255,8.446459 -8.17968,-0.08019 z m -65.437399,-0.641666 -8.179671,-0.08019 -8.179673,-0.08019 0.02547,-8.446465 0.02548,-8.446468 0.02547,-8.446467 8.179673,0.08021 8.17967,0.08022 8.179672,0.08021 8.179684,0.08021 8.179672,0.08022 8.179673,0.08021 8.179679,0.08021 -0.0255,8.446462 -0.0254,8.446461 -8.179678,-0.08019 -8.179673,-0.08019 -8.179671,-0.08019 -8.179671,-0.08019 -8.179673,-0.08019 z m -24.539018,-0.24062 -8.17967,-0.08019 0.02547,-8.446466 0.02547,-8.446463 8.179672,0.08022 -0.02547,8.446467 z m 359.931097,-4.917299 -8.17967,-0.08019 -8.17968,-0.08019 0.0255,-8.44646 8.17967,0.08021 8.17967,0.08021 z m -212.6715,-2.085421 -8.17968,-0.08019 0.0255,-8.446455 0.0255,-8.446466 -8.17967,-0.08022 0.0255,-8.446466 8.17967,0.08022 8.17966,0.08021 -0.0255,8.446467 -0.0255,8.446464 z m 188.15795,-6.601668 -8.17966,-0.08021 0.0255,-8.446465 0.0255,-8.446465 8.17966,0.08021 -0.0255,8.446465 z m -32.69322,-8.767295 -8.17966,-0.08022 -8.17968,-0.08021 -8.17967,-0.08021 0.0255,-8.446465 8.17966,0.08021 8.17969,0.08021 8.17967,0.08022 z m -81.79673,-0.802089 -8.17966,-0.08021 -8.17968,-0.08022 -8.17968,-0.08021 -8.17966,-0.08021 0.0255,-8.446466 8.17967,0.08021 8.17966,0.08022 8.17968,0.08021 8.17969,0.08021 z" />
  <path
     id="rect2-3"
     style="mix-blend-mode:normal;fill:#32324a;fill-opacity:1;fill-rule:evenodd;stroke:none;stroke-width:1;stroke-linecap:round;stroke-linejoin:round;stroke-dashoffset:19.02;stroke-opacity:1;filter:url(#filter9097)"
     d="M 60.433267,3.2840028 V 13.284003 h 10 10 10 10.000003 V 3.2840028 h -10.000003 -10 -10 z M 210.43327,13.284003 v 10 h -10 -10 -10 -10 -10 v 9.66601 h -3.44531 v 10 0.33399 h -6.55469 -10 -10 v -10 -10 h -10 -10 -3.84375 v -6.24024 H 96.589517 v 10 10 10 h -10 -10 v -10 -10 -10 h -10 v 10 h -10 -10 -10 v 10 10 10 h 10 v 10 9.999998 6.24024 h -6.15625 -10 v 9.999999 10.00001 10 10 h 10 10 10 v -10 h 10 10 v 10 h 10 v 10 10 10 h 10.000003 v -10 -10 -10 h 10 10 v -10 -10 h 10 10 V 93.284 h 10 10 v -9.999999 h -10 -10 -10 V 93.284 h -10 v -9.999999 -10 -9.999998 -10 h 10 10 10 6.55469 v 9.66601 9.999998 10 h 10 10 10 10 10 10 10 v 9.999999 10.00001 h 10 v 10 h -10 -10 v 10 h 10 10 10 10 v -10 h -10 v -10 -10.00001 h -10 v -9.999999 h 10 10 10 v -10 h 10 v 10 9.999999 10.00001 h -10 v 10 10 h 10 v -10 h 10 v -10 -10.00001 -9.999999 -10 -8.900388 h 7.41601 v -0.76562 h 6.0293 v 9.999998 10 9.999999 h -10 v 10.00001 h 10 10 V 93.284 h 10 10 10 10 v 10.00001 h -10 -10 -10 v 10 h -10 v 10 10 h -10 -10 -10 -10 -10 -10 v 10 h 10 v 10 10 h -10 v -10 h -10 -10 -10 v -10 h 10 v -10 h -10 -10 v 10 10 h -10 -10 v 10 10 10 10 h -10 -10 v 10 h 10 10 v 10 h 10 10 v 10 10 h 10 10 10 10 10 10 v -10 -10 h 10 10 10 v 10 10 h 10 10 10 10 v -10 -10 -10 h -10 v -10 -10 h -10 -10 v -10 h 10 10 10 v 10 10 h 10 10 v 10 10 h 2.29101 v 9.73828 h 10 10 v 10 h 10 10 10 10 v -10 h -10 -10 -10 v -10 -10 h 10 10 10 v -10 h -10 -10 -10 v -10 -10 -10 h 10 10 10 v -10 -10 -10 h -10 v -10 h -10 -10 -10 -10 v 10 10 10 h 10 v 10 10 10 h -2.29101 v -9.73828 -10 h -10 -10 -10 -10 -10 v -10 -10 -10 h -10 v -10 h 10 v -10 h 10 10 10 v -10 -10.00001 -9.999999 -10 h 10 10 10 10 10 v -9.999998 h 10 v -10 -10 -10 -10 h 10.00001 10 v 10 h 10 10 10 10 v 10 10 10 9.999998 10 9.999999 10.00001 h -10 -10 -10 -10 v 10 10 10 h 10 v -10 -10 h 10 v 10 10 h 10 10 v 10 h -10 -10 -10 -10 v 10 h 10 v 10 10 10 h -10 v 10 h 10 10 v -10 h 10 10 v 10 10 10 h -10 -10 -10 -10 v 10 h 10 10 10 10 10 v -10 h 10 10 v -10 -10 -10 -10 -10 -10 -10 -10 -10 -10 -10 h -10 -10 V 93.284 83.284001 h 10 10 v -10 -9.999998 -10 -10 -10 -10 -10 h -10 -10 -10 v 10 h -10 -10 -10 v -10 h -10 -10 -10.00001 -10 v 10 10 10 10 h -10 v 10 h -10 v -10 h -6.0293 v -9.23438 -10 h 10 10 v -10 h -10 -10 -10 -10 -10 v 10 h -10 -10 -10 -10 -10 -10 -10 v 10 10 8.90039 h -7.41601 -10 -10 v 9.999998 h -10 -10 v -9.999998 -10 -9.66601 h 3.44531 v -0.33399 h 6.55469 3.44531 v 0.33399 h 10 v -10 h 10 10 10 v -10 h -10 -10 -10 v -10 h -10 -10 -10 -10 z m 10,10 h 10 v 9.66601 h -3.44531 -6.55469 z m 20,0 h 10 v 9.66601 h -3.44531 -6.55469 z m 250.00001,0 h 10 v 10 10 10 10 9.999998 h -10 v -9.999998 -10 -10 -10 z m -383.84376,10 h 3.84375 10 v 10 h -10 v 10 10 h -3.84375 v -6.24024 -10 -10 z m 257.81445,0.76562 h 10 v 10 10 9.23438 h -3.9707 v -10 h -6.0293 v -9.23438 z m -317.814453,2.99414 h 10 10 v 10 h -10 -10 z m 123.843753,5.90625 h 6.55469 10 10 v 10 10 h 10 10 10 v 9.999998 h -10 -10 -10 -10 -10 -10 v -9.999998 -10 -9.66601 h 3.44531 z m 36.55469,0 h 3.44531 v 0.33399 h 10 v -0.33399 h 6.55469 v 10 h -10 -10 z m 87.41601,1.09961 h 10 10 v 10 9.23438 h -3.9707 v -10 h -10 -6.0293 z m 30,0 h 10 10 10 v 10 h -10 -3.9707 v -0.76562 h -10 v 0.76562 h -6.0293 z M 56.589517,57.043763 h 10 v 10 9.999998 h -10 v -9.999998 z m 20,0 h 10 10 v 10 9.999998 h -10 -10 v -9.999998 z m 263.843753,7.00586 h 3.9707 6.0293 v 9.234378 10 h -10 v -10 z m -233.84375,9.234378 h 3.84375 v 10 9.999999 10.00001 10 h -10 -10.000003 v -10 V 93.284 87.043763 h 6.15625 10.000003 V 77.043761 Z m 203.84375,0 h 10 10 v 10 h -10 -10 z M 50.433267,87.043763 h 6.15625 10 10 3.84375 V 93.284 103.28401 h -10 -10 -10 v 10 h -10 v -10 V 93.284 h 10 z M 470.43328,113.28401 h 10 10 10 v 10 h -10 -10 -10 z m -87.709,19.73828 h 10 10 v 10 h 10 v 10 h -10 -10 v -10 h -10 z m 107.709,0.26172 h 10 v 10 10 10 10 h -10 v -10 -10 -10 z m -220.00001,10 h 10 10 10 10 10 v 10 10 h -10 -10 -10 -10 v 10 h -10 v -10 -10 z m 190.00001,10 h 10 10 v 10 10 h -10 -10 v -10 z m -373.013683,4.73828 v 10 h 10 v 10 h 10.000003 10 10 10 v 10 h 10 v 10 10 h -10 -10 -10 -10 v 10 10 H 97.419597 v -10 -10 -10 h -10 -10 v -10 h -10 -10 -10 -10 v 10 10 10 h 10 10 10 v 10 10 h 10 10 10 10.000003 10 10 10 10 10 v -10 -10 -10 h 10 v -10 h -10 v -10 -10 h -10 v -10 h -10 -10 -10 -10 v -10 H 97.419597 Z m 113.013673,5.26172 h 10 v 10 10 h -10 v -10 z m 20,0 h 10 10 v 10 10 10 10 h -10 -10 -10 -10 v -10 h 10 10 v -10 -10 z m 30,10 h 10 v 10 h 10 v 10 10 h -10 -10 v -10 -10 z m 40,0 h 10 v 10 10 10 h -10 -10 v -10 -10 h 10 z m 60,0 h 10 10 v 9.73828 h -7.70899 v 0.26172 h -2.29101 -10 z m 140.00001,10 h 10 v 10 10 h -10 v -10 z m -110.00001,9.73828 h 2.29101 v 10 10 h -2.29101 v -9.73828 h -10 v -10 h 10 z m -70,0.26172 h 10 v 10 10 h 10 v 10 h -10 -10 v -10 -10 z m -263.013673,4.73828 h 10 10 v 10 h -10 -10 z m 30,10 h 10 v 10 10 h -10 v -10 z m 143.013673,5.26172 h 10 10 10 10 v 10 h -10 -10 -10 -10 z m -103.01367,4.73828 h 10 10 10 v 10 h -10 -10 -10 z"
     transform="matrix(0.70666086,0,0,0.70978034,121.52244,5.9273521)" />
  <path
     id="rect2"
     style="opacity:1;fill:#362b87;fill-opacity:1;fill-rule:evenodd;stroke-width:0.708219;stroke-linecap:round;stroke-linejoin:round;stroke-dashoffset:19.02"
     d="m 160.36966,3.6310444 v 7.0978036 7.097804 h -7.06661 -7.06661 -7.06661 v 7.097803 7.097803 7.097804 h 7.06661 v 7.097803 7.097803 7.097804 h -7.06661 v 7.097803 7.097801 7.097804 7.097803 h 7.06661 7.06661 7.06661 V 81.70688 h 7.06661 7.06661 v 7.097803 h 7.06661 v 7.097803 7.097804 7.0978 7.0978 h 7.0666 v 7.09781 h 7.06661 7.06661 7.06661 7.06661 v 7.0978 h 7.06661 v 7.0978 7.09781 h -7.06661 -7.06661 -7.06661 -7.06661 v 7.0978 7.0978 h -7.06661 v -7.0978 -7.0978 -7.09781 h -7.0666 -7.06661 v -7.0978 h -7.06661 -7.06661 -7.06661 -7.06661 v 7.0978 7.09781 7.0978 h 7.06661 7.06661 7.06661 v 7.0978 7.09781 h 7.06661 7.06661 7.0666 7.06661 7.06661 7.06661 7.06661 7.06661 7.06661 v -7.09781 -7.0978 -7.0978 h 7.06661 7.06661 7.06661 v 7.0978 h 7.06661 7.0666 v 7.0978 7.09781 h 7.06661 7.06661 7.06661 7.06661 7.06661 7.06661 v -7.09781 -7.0978 h 7.0666 7.06661 7.06661 v 7.0978 7.09781 h 7.06661 7.06661 7.06661 7.06661 v -7.09781 -7.0978 -7.0978 h -7.06661 v -7.09781 -7.0978 h -7.06661 -7.06661 v -7.0978 h 7.06661 7.06661 7.06661 v 7.0978 7.0978 h 7.06661 7.0666 v 7.09781 7.0978 h 7.06661 7.06661 7.06661 7.06661 v 7.0978 h 7.06661 7.06661 7.0666 7.06661 7.06661 7.06661 7.06661 7.06661 7.06661 v -7.0978 h 7.0666 7.06661 v -7.0978 -7.09781 -7.0978 -7.0978 -7.09781 -7.0978 -7.0978 -7.097804 -7.097803 -7.097803 -7.097804 h -7.06661 -7.0666 v -7.097801 -7.097803 h 7.0666 7.06661 v -7.097804 -7.097803 -7.097803 -7.097804 -7.097803 -7.097803 -7.097804 h -7.06661 -7.0666 -7.06661 v 7.097804 h -7.06661 -7.06661 -7.06661 v -7.097804 h -7.06661 -7.06661 -7.0666 -7.06661 -7.06661 -7.06661 -7.06661 -7.06661 -7.06661 v 7.097804 h -7.0666 -7.06661 -7.06661 -7.06661 -7.06661 -7.06661 -7.06661 -7.06661 -7.0666 -7.06661 v -7.097804 h -7.06661 -7.06661 -7.06661 -7.06661 -7.06661 v 7.097804 h -7.0666 -7.06661 -7.06661 -7.06661 -7.06661 v 7.097803 7.097803 h -7.06661 -7.06661 -7.06661 v -7.097803 -7.097803 h -7.06661 -7.06661 -7.06661 V 10.728848 3.6310444 h -7.0666 -7.06661 -7.06661 z m 7.06661,7.0978036 h 7.06661 7.06661 v 7.097804 7.097803 7.097803 h -7.06661 -7.06661 v -7.097803 -7.097803 z m 105.99913,7.097804 h 7.06661 v 7.097803 7.097803 h -7.06661 v -7.097803 z m 14.13322,0 h 7.06661 v 7.097803 7.097803 h -7.06661 v -7.097803 z m 91.86591,0 h 7.06661 v 7.097803 7.097803 7.097804 7.097803 h -7.06661 v -7.097803 -7.097804 -7.097803 z m 14.13322,0 h 7.06661 7.06661 v 7.097803 7.097803 7.097804 h -7.06661 v 7.097803 h -7.06661 v -7.097803 -7.097804 -7.097803 z m 21.19983,0 h 7.0666 7.06661 v 7.097803 h 7.06661 7.06661 7.06661 7.06661 v 7.097803 7.097804 7.097803 7.097803 7.097804 7.097803 7.097801 h -7.06661 -7.06661 -7.06661 -7.06661 v 7.097804 7.097803 h -7.06661 V 81.70688 h -7.0666 -7.06661 -7.06661 -7.06661 v 7.097803 7.097803 7.097804 h 7.06661 v 7.0978 7.0978 7.09781 h -7.06661 -7.06661 v -7.09781 h -7.06661 -7.06661 -7.0666 -7.06661 -7.06661 v -7.0978 -7.0978 -7.097804 h -7.06661 v -7.097803 h 7.06661 V 81.70688 h 7.06661 7.06661 7.0666 v -7.097804 -7.097801 -7.097803 -7.097804 h 7.06661 7.06661 7.06661 7.06661 7.06661 v -7.097803 h 7.06661 v -7.097803 -7.097804 -7.097803 z m 49.46626,0 h 7.0666 v 7.097803 7.097803 7.097804 7.097803 7.097803 h -7.0666 v -7.097803 -7.097803 -7.097804 -7.097803 z m -317.9974,7.097803 h 7.06661 7.06661 v 7.097803 h -7.06661 -7.06661 z m 42.39965,0 h 7.06661 7.06661 v 7.097803 h -7.06661 v 7.097804 7.097803 h -7.06661 v -7.097803 -7.097804 z m 49.46627,0 h 7.06661 7.06661 7.06661 7.0666 v 7.097803 h -7.0666 -7.06661 -7.06661 -7.06661 z m 63.59948,0 h 7.06661 7.0666 7.06661 v 7.097803 7.097804 7.097803 h 7.06661 v 7.097803 7.097804 7.097803 h -7.06661 v -7.097803 -7.097804 h -7.06661 -7.0666 -7.06661 v 7.097804 h -7.06661 -7.06661 v -7.097804 -7.097803 -7.097803 h 7.06661 7.06661 v -7.097804 z m 28.26643,0 h 7.06661 7.06661 v 7.097803 7.097804 h 7.06661 v 7.097803 h -7.06661 -7.06661 v -7.097803 h -7.06661 v -7.097804 z m 21.19983,0 h 7.06661 7.06661 7.0666 v 7.097803 h -7.0666 -7.06661 -7.06661 z M 153.30305,39.120062 h 7.06661 v 7.097803 7.097803 h -7.06661 v -7.097803 z m 14.13322,0 h 7.06661 7.06661 v 7.097803 7.097803 h -7.06661 -7.06661 v -7.097803 z m 35.33304,0 h 7.06661 7.06661 7.06661 7.06661 v 7.097803 7.097803 7.097804 h -7.06661 -7.06661 -7.06661 v 7.097803 h -7.06661 v -7.097803 -7.097804 -7.097803 z m 35.33305,0 h 7.06661 7.06661 7.06661 v 7.097803 7.097803 h 7.0666 7.06661 7.06661 v 7.097804 h -7.06661 -7.06661 -7.0666 -7.06661 -7.06661 -7.06661 v -7.097804 -7.097803 z m 28.26643,0 h 7.06661 7.06661 v 7.097803 h -7.06661 -7.06661 z m 91.86592,0 h 7.06661 7.0666 v 7.097803 h -7.0666 v 7.097803 7.097804 h -7.06661 V 53.315668 46.217865 Z M 188.63609,53.315668 h 7.06661 v 7.097804 7.097803 7.097801 7.097804 h -7.06661 -7.0666 v -7.097804 -7.097801 -7.097803 h 7.0666 z m 148.39879,0 h 7.06661 7.06661 v 7.097804 h -7.06661 -7.06661 z m -183.73183,7.097804 h 7.06661 7.06661 7.06661 v 7.097803 7.097801 h -7.06661 -7.06661 -7.06661 v 7.097804 h -7.06661 v -7.097804 -7.097801 h 7.06661 z m 155.4654,0 h 7.0666 v 7.097803 7.097801 7.097804 h -7.0666 v 7.097803 7.097803 h -7.06661 v -7.097803 h -7.06661 V 81.70688 74.609076 h -7.06661 v -7.097801 h 7.06661 7.06661 7.06661 z m -91.86592,7.097803 h 7.06661 7.06661 7.06661 7.06661 7.06661 7.06661 7.0666 7.06661 7.06661 v 7.097801 7.097804 h 7.06661 v 7.097803 h -7.06661 -7.06661 v 7.097803 h -7.06661 v 7.097804 7.0978 h -7.0666 -7.06661 v 7.0978 7.09781 7.0978 7.0978 h -7.06661 -7.06661 -7.06661 v -7.0978 -7.0978 h -7.06661 v -7.09781 h -7.06661 -7.06661 -7.06661 -7.06661 v -7.0978 h -7.06661 v -7.0978 -7.097804 -7.097803 h 7.06661 7.06661 V 81.70688 74.609076 h 7.06661 7.06661 z m 120.13235,0 h 7.06661 7.06661 7.06661 7.06661 v 7.097801 h -7.06661 -7.06661 -7.06661 v 7.097804 h -7.06661 v 7.097803 7.097803 h -7.06661 -7.06661 -7.06661 v -7.097803 h 7.06661 V 81.70688 74.609076 h 7.06661 7.06661 z M 435.9674,81.70688 h 7.06661 v 7.097803 7.097803 h 7.06661 7.06661 v 7.097804 h -7.06661 -7.06661 -7.06661 -7.06661 v -7.097804 h 7.06661 v -7.097803 z m 14.13322,0 h 7.06661 7.06661 7.0666 v 7.097803 h -7.0666 -7.06661 -7.06661 z m -49.46626,7.097803 h 7.06661 7.06661 v 7.097803 h 7.0666 v 7.097804 h -7.0666 -7.06661 v -7.097804 h -7.06661 z m -120.13235,7.097803 h 7.06661 7.06661 v 7.097804 h 7.06661 v 7.0978 7.0978 h -7.06661 v -7.0978 h -7.06661 -7.06661 -7.06661 v -7.0978 h 7.06661 z m 183.73183,0 h 7.0666 v 7.097804 7.0978 7.0978 7.09781 h -7.0666 v -7.09781 -7.0978 -7.0978 z m -155.46539,7.097804 h 7.0666 7.06661 7.06661 7.06661 7.06661 v 7.0978 7.0978 h -7.06661 -7.06661 -7.06661 -7.06661 v 7.09781 h -7.0666 v -7.09781 -7.0978 z m 98.93252,7.0978 h 7.06661 7.0666 7.06661 7.06661 v 7.0978 7.09781 7.0978 h -7.06661 -7.06661 -7.0666 -7.06661 v -7.0978 -7.09781 z m 35.33304,0 h 7.06661 7.06661 v 7.0978 7.09781 h -7.06661 -7.06661 v -7.09781 z m -183.73182,7.0978 h 7.0666 v 7.09781 7.0978 h -7.0666 v -7.0978 z m 14.13321,0 h 7.06661 7.06661 v 7.09781 7.0978 7.0978 7.09781 h -7.06661 -7.06661 -7.06661 -7.0666 v -7.09781 h 7.0666 7.06661 v -7.0978 -7.0978 z m 21.19983,7.09781 h 7.06661 v 7.0978 h 7.06661 v 7.0978 7.09781 h -7.06661 -7.06661 v -7.09781 -7.0978 z m 28.26643,0 h 7.06661 v 7.0978 7.0978 7.09781 h -7.06661 -7.06661 v -7.09781 -7.0978 h 7.06661 z m 42.39966,0 h 7.0666 7.06661 v 7.0978 h -7.06661 -7.0666 z m 21.19982,7.0978 h 7.06661 7.06661 v 7.0978 7.09781 h -7.06661 -7.06661 -7.06661 v -7.09781 h 7.06661 z m 56.53287,0 h 7.06661 7.06661 v 7.0978 7.09781 7.0978 h -7.06661 -7.06661 -7.06661 -7.06661 -7.06661 -7.0666 -7.06661 v -7.0978 -7.09781 h 7.06661 7.0666 7.06661 7.06661 7.06661 z m 21.19983,0 h 7.0666 v 7.0978 7.09781 h -7.0666 v -7.09781 z m -310.93079,7.0978 h 7.06661 7.06661 v 7.09781 h -7.06661 -7.06661 z m 183.73183,0 h 7.06661 v 7.09781 7.0978 h 7.06661 v 7.0978 h -7.06661 -7.06661 v -7.0978 -7.0978 z m -162.532,7.09781 h 7.06661 v 7.0978 7.0978 h -7.06661 v -7.0978 z m 28.26643,7.0978 h 7.06661 7.06661 7.06661 v 7.0978 h -7.06661 -7.06661 -7.06661 z m 70.66609,0 h 7.06661 7.06661 7.06661 7.06661 v 7.0978 h -7.06661 -7.06661 -7.06661 -7.06661 z" />
  <path
     id="rect2-3-2"
     style="mix-blend-mode:normal;fill:#32324a;fill-opacity:1;fill-rule:evenodd;stroke:none;stroke-width:1;stroke-linecap:round;stroke-linejoin:round;stroke-dashoffset:19.02;stroke-opacity:1;filter:url(#filter9097-3)"
     d="M 60.433267,3.2840028 V 13.284003 h 10 10 10 10.000003 V 3.2840028 h -10.000003 -10 -10 z M 210.43327,13.284003 v 10 h -10 -10 -10 -10 -10 v 9.66601 h -3.44531 v 10 0.33399 h -6.55469 -10 -10 v -10 -10 h -10 -10 -3.84375 v -6.24024 H 96.589517 v 10 10 10 h -10 -10 v -10 -10 -10 h -10 v 10 h -10 -10 -10 v 10 10 10 h 10 v 10 9.999998 6.24024 h -6.15625 -10 v 9.999999 10.00001 10 10 h 10 10 10 v -10 h 10 10 v 10 h 10 v 10 10 10 h 10.000003 v -10 -10 -10 h 10 10 v -10 -10 h 10 10 V 93.284 h 10 10 v -9.999999 h -10 -10 -10 V 93.284 h -10 v -9.999999 -10 -9.999998 -10 h 10 10 10 6.55469 v 9.66601 9.999998 10 h 10 10 10 10 10 10 10 v 9.999999 10.00001 h 10 v 10 h -10 -10 v 10 h 10 10 10 10 v -10 h -10 v -10 -10.00001 h -10 v -9.999999 h 10 10 10 v -10 h 10 v 10 9.999999 10.00001 h -10 v 10 10 h 10 v -10 h 10 v -10 -10.00001 -9.999999 -10 -8.900388 h 7.41601 v -0.76562 h 6.0293 v 9.999998 10 9.999999 h -10 v 10.00001 h 10 10 V 93.284 h 10 10 10 10 v 10.00001 h -10 -10 -10 v 10 h -10 v 10 10 h -10 -10 -10 -10 -10 -10 v 10 h 10 v 10 10 h -10 v -10 h -10 -10 -10 v -10 h 10 v -10 h -10 -10 v 10 10 h -10 -10 v 10 10 10 10 h -10 -10 v 10 h 10 10 v 10 h 10 10 v 10 10 h 10 10 10 10 10 10 v -10 -10 h 10 10 10 v 10 10 h 10 10 10 10 v -10 -10 -10 h -10 v -10 -10 h -10 -10 v -10 h 10 10 10 v 10 10 h 10 10 v 10 10 h 2.29101 v 9.73828 h 10 10 v 10 h 10 10 10 10 v -10 h -10 -10 -10 v -10 -10 h 10 10 10 v -10 h -10 -10 -10 v -10 -10 -10 h 10 10 10 v -10 -10 -10 h -10 v -10 h -10 -10 -10 -10 v 10 10 10 h 10 v 10 10 10 h -2.29101 v -9.73828 -10 h -10 -10 -10 -10 -10 v -10 -10 -10 h -10 v -10 h 10 v -10 h 10 10 10 v -10 -10.00001 -9.999999 -10 h 10 10 10 10 10 v -9.999998 h 10 v -10 -10 -10 -10 h 10.00001 10 v 10 h 10 10 10 10 v 10 10 10 9.999998 10 9.999999 10.00001 h -10 -10 -10 -10 v 10 10 10 h 10 v -10 -10 h 10 v 10 10 h 10 10 v 10 h -10 -10 -10 -10 v 10 h 10 v 10 10 10 h -10 v 10 h 10 10 v -10 h 10 10 v 10 10 10 h -10 -10 -10 -10 v 10 h 10 10 10 10 10 v -10 h 10 10 v -10 -10 -10 -10 -10 -10 -10 -10 -10 -10 -10 h -10 -10 V 93.284 83.284001 h 10 10 v -10 -9.999998 -10 -10 -10 -10 -10 h -10 -10 -10 v 10 h -10 -10 -10 v -10 h -10 -10 -10.00001 -10 v 10 10 10 10 h -10 v 10 h -10 v -10 h -6.0293 v -9.23438 -10 h 10 10 v -10 h -10 -10 -10 -10 -10 v 10 h -10 -10 -10 -10 -10 -10 -10 v 10 10 8.90039 h -7.41601 -10 -10 v 9.999998 h -10 -10 v -9.999998 -10 -9.66601 h 3.44531 v -0.33399 h 6.55469 3.44531 v 0.33399 h 10 v -10 h 10 10 10 v -10 h -10 -10 -10 v -10 h -10 -10 -10 -10 z m 10,10 h 10 v 9.66601 h -3.44531 -6.55469 z m 20,0 h 10 v 9.66601 h -3.44531 -6.55469 z m 250.00001,0 h 10 v 10 10 10 10 9.999998 h -10 v -9.999998 -10 -10 -10 z m -383.84376,10 h 3.84375 10 v 10 h -10 v 10 10 h -3.84375 v -6.24024 -10 -10 z m 257.81445,0.76562 h 10 v 10 10 9.23438 h -3.9707 v -10 h -6.0293 v -9.23438 z m -317.814453,2.99414 h 10 10 v 10 h -10 -10 z m 123.843753,5.90625 h 6.55469 10 10 v 10 10 h 10 10 10 v 9.999998 h -10 -10 -10 -10 -10 -10 v -9.999998 -10 -9.66601 h 3.44531 z m 36.55469,0 h 3.44531 v 0.33399 h 10 v -0.33399 h 6.55469 v 10 h -10 -10 z m 87.41601,1.09961 h 10 10 v 10 9.23438 h -3.9707 v -10 h -10 -6.0293 z m 30,0 h 10 10 10 v 10 h -10 -3.9707 v -0.76562 h -10 v 0.76562 h -6.0293 z M 56.589517,57.043763 h 10 v 10 9.999998 h -10 v -9.999998 z m 20,0 h 10 10 v 10 9.999998 h -10 -10 v -9.999998 z m 263.843753,7.00586 h 3.9707 6.0293 v 9.234378 10 h -10 v -10 z m -233.84375,9.234378 h 3.84375 v 10 9.999999 10.00001 10 h -10 -10.000003 v -10 V 93.284 87.043763 h 6.15625 10.000003 V 77.043761 Z m 203.84375,0 h 10 10 v 10 h -10 -10 z M 50.433267,87.043763 h 6.15625 10 10 3.84375 V 93.284 103.28401 h -10 -10 -10 v 10 h -10 v -10 V 93.284 h 10 z M 470.43328,113.28401 h 10 10 10 v 10 h -10 -10 -10 z m -87.709,19.73828 h 10 10 v 10 h 10 v 10 h -10 -10 v -10 h -10 z m 107.709,0.26172 h 10 v 10 10 10 10 h -10 v -10 -10 -10 z m -220.00001,10 h 10 10 10 10 10 v 10 10 h -10 -10 -10 -10 v 10 h -10 v -10 -10 z m 190.00001,10 h 10 10 v 10 10 h -10 -10 v -10 z m -373.013683,4.73828 v 10 h 10 v 10 h 10.000003 10 10 10 v 10 h 10 v 10 10 h -10 -10 -10 -10 v 10 10 H 97.419597 v -10 -10 -10 h -10 -10 v -10 h -10 -10 -10 -10 v 10 10 10 h 10 10 10 v 10 10 h 10 10 10 10.000003 10 10 10 10 10 v -10 -10 -10 h 10 v -10 h -10 v -10 -10 h -10 v -10 h -10 -10 -10 -10 v -10 H 97.419597 Z m 113.013673,5.26172 h 10 v 10 10 h -10 v -10 z m 20,0 h 10 10 v 10 10 10 10 h -10 -10 -10 -10 v -10 h 10 10 v -10 -10 z m 30,10 h 10 v 10 h 10 v 10 10 h -10 -10 v -10 -10 z m 40,0 h 10 v 10 10 10 h -10 -10 v -10 -10 h 10 z m 60,0 h 10 10 v 9.73828 h -7.70899 v 0.26172 h -2.29101 -10 z m 140.00001,10 h 10 v 10 10 h -10 v -10 z m -110.00001,9.73828 h 2.29101 v 10 10 h -2.29101 v -9.73828 h -10 v -10 h 10 z m -70,0.26172 h 10 v 10 10 h 10 v 10 h -10 -10 v -10 -10 z m -263.013673,4.73828 h 10 10 v 10 h -10 -10 z m 30,10 h 10 v 10 10 h -10 v -10 z m 143.013673,5.26172 h 10 10 10 10 v 10 h -10 -10 -10 -10 z m -103.01367,4.73828 h 10 10 10 v 10 h -10 -10 -10 z"
     transform="matrix(0.70666086,0,0,0.70978034,-4.9297429,79.669335)" />
  <path
     id="rect2-8"
     style="fill:#224c18;fill-opacity:1;fill-rule:evenodd;stroke-width:0.708219;stroke-linecap:round;stroke-linejoin:round;stroke-dashoffset:19.02"
     d="m 33.917477,77.373027 v 7.097804 7.097804 h -7.06661 -7.06661 -7.06661 v 7.097805 7.0978 7.0978 h 7.06661 v 7.09781 7.0978 7.0978 h -7.06661 v 7.09781 7.0978 7.0978 7.09781 h 7.06661 7.06661 7.06661 v -7.09781 h 7.06661 7.06661 v 7.09781 h 7.06661 v 7.0978 7.0978 7.0978 7.0978 h 7.0666 v 7.09781 h 7.06661 7.06661 7.06661 7.066607 v 7.0978 h 7.06661 v 7.0978 7.09781 h -7.06661 -7.066607 -7.06661 -7.06661 v 7.0978 7.0978 h -7.06661 v -7.0978 -7.0978 -7.09781 h -7.0666 -7.06661 v -7.0978 h -7.06661 -7.06661 -7.06661 -7.06661 v 7.0978 7.09781 7.0978 h 7.06661 7.06661 7.06661 v 7.0978 7.09781 h 7.06661 7.06661 7.0666 7.06661 7.06661 7.06661 7.066607 7.06661 7.066606 v -7.09781 -7.0978 -7.0978 h 7.06661 7.06661 7.06661 v 7.0978 h 7.06661 7.0666 v 7.0978 7.09781 h 7.06661 7.06661 7.06661 7.06661 7.06661 7.06661 v -7.09781 -7.0978 h 7.0666 7.06661 7.06661 v 7.0978 7.09781 h 7.06661 7.06661 7.06661 7.06661 v -7.09781 -7.0978 -7.0978 h -7.06661 v -7.09781 -7.0978 h -7.06661 -7.06661 v -7.0978 h 7.06661 7.06661 7.06661 v 7.0978 7.0978 h 7.06661 7.0666 v 7.09781 7.0978 h 7.06661 7.06661 7.06661 7.06661 v 7.0978 h 7.06661 7.06661 7.0666 7.06661 7.06661 7.06661 7.06661 7.06661 7.06661 v -7.0978 h 7.0666 7.06661 v -7.0978 -7.09781 -7.0978 -7.0978 -7.09781 -7.0978 -7.0978 -7.0978 -7.0978 -7.09781 -7.0978 h -7.06661 -7.0666 v -7.0978 -7.09781 h 7.0666 7.06661 v -7.0978 -7.0978 -7.09781 -7.0978 -7.0978 -7.097805 -7.097804 h -7.06661 -7.0666 -7.06661 v 7.097804 h -7.06661 -7.06661 -7.06661 v -7.097804 h -7.06661 -7.06661 -7.0666 -7.06661 -7.06661 -7.06661 -7.06661 -7.06661 -7.06661 v 7.097804 h -7.0666 -7.06661 -7.06661 -7.06661 -7.06661 -7.06661 -7.06661 -7.06661 -7.0666 -7.06661 v -7.097804 h -7.06661 -7.06661 -7.06661 -7.06661 -7.06661 v 7.097804 h -7.0666 -7.06661 -7.06661 -7.06661 -7.06661 v 7.097805 7.0978 h -7.066606 -7.06661 -7.066607 v -7.0978 -7.097805 h -7.06661 -7.06661 -7.06661 v -7.097804 -7.097804 h -7.0666 -7.06661 -7.06661 z m 7.06661,7.097804 h 7.06661 7.06661 v 7.097804 7.097805 7.0978 h -7.06661 -7.06661 v -7.0978 -7.097805 z m 105.999123,7.097804 h 7.06661 v 7.097805 7.0978 h -7.06661 v -7.0978 z m 14.13322,0 h 7.06661 v 7.097805 7.0978 h -7.06661 v -7.0978 z m 91.86591,0 h 7.06661 v 7.097805 7.0978 7.0978 7.09781 h -7.06661 v -7.09781 -7.0978 -7.0978 z m 14.13322,0 h 7.06661 7.06661 v 7.097805 7.0978 7.0978 h -7.06661 v 7.09781 h -7.06661 v -7.09781 -7.0978 -7.0978 z m 21.19983,0 h 7.0666 7.06661 v 7.097805 h 7.06661 7.06661 7.06661 7.06661 v 7.0978 7.0978 7.09781 7.0978 7.0978 7.09781 7.0978 h -7.06661 -7.06661 -7.06661 -7.06661 v 7.0978 7.09781 h -7.06661 v -7.09781 h -7.0666 -7.06661 -7.06661 -7.06661 v 7.09781 7.0978 7.0978 h 7.06661 v 7.0978 7.0978 7.09781 h -7.06661 -7.06661 v -7.09781 h -7.06661 -7.06661 -7.0666 -7.06661 -7.06661 v -7.0978 -7.0978 -7.0978 h -7.06661 v -7.0978 h 7.06661 v -7.09781 h 7.06661 7.06661 7.0666 v -7.0978 -7.0978 -7.09781 -7.0978 h 7.06661 7.06661 7.06661 7.06661 7.06661 v -7.0978 h 7.06661 v -7.09781 -7.0978 -7.0978 z m 49.46626,0 h 7.0666 v 7.097805 7.0978 7.0978 7.09781 7.0978 h -7.0666 v -7.0978 -7.09781 -7.0978 -7.0978 z M 19.784257,98.66644 h 7.06661 7.06661 v 7.0978 h -7.06661 -7.06661 z m 42.39965,0 h 7.06661 7.06661 v 7.0978 h -7.06661 v 7.0978 7.09781 h -7.06661 v -7.09781 -7.0978 z m 49.466263,0 h 7.06661 7.06661 7.06661 7.0666 v 7.0978 h -7.0666 -7.06661 -7.06661 -7.06661 z m 63.59948,0 h 7.06661 7.0666 7.06661 v 7.0978 7.0978 7.09781 h 7.06661 v 7.0978 7.0978 7.09781 h -7.06661 v -7.09781 -7.0978 h -7.06661 -7.0666 -7.06661 v 7.0978 h -7.06661 -7.06661 v -7.0978 -7.0978 -7.09781 h 7.06661 7.06661 v -7.0978 z m 28.26643,0 h 7.06661 7.06661 v 7.0978 7.0978 h 7.06661 v 7.09781 h -7.06661 -7.06661 v -7.09781 h -7.06661 v -7.0978 z m 21.19983,0 h 7.06661 7.06661 7.0666 v 7.0978 h -7.0666 -7.06661 -7.06661 z m -197.865043,14.1956 h 7.06661 v 7.09781 7.0978 h -7.06661 v -7.0978 z m 14.13322,0 h 7.06661 7.06661 v 7.09781 7.0978 h -7.06661 -7.06661 v -7.0978 z m 35.33304,0 h 7.06661 7.066607 7.06661 7.066606 v 7.09781 7.0978 7.0978 h -7.066606 -7.06661 -7.066607 v 7.09781 h -7.06661 v -7.09781 -7.0978 -7.0978 z m 35.333043,0 h 7.06661 7.06661 7.06661 v 7.09781 7.0978 h 7.0666 7.06661 7.06661 v 7.0978 h -7.06661 -7.06661 -7.0666 -7.06661 -7.06661 -7.06661 v -7.0978 -7.0978 z m 28.26643,0 h 7.06661 7.06661 v 7.09781 h -7.06661 -7.06661 z m 91.86592,0 h 7.06661 7.0666 v 7.09781 h -7.0666 v 7.0978 7.0978 h -7.06661 v -7.0978 -7.0978 z M 62.183907,127.05765 h 7.06661 v 7.0978 7.09781 7.0978 7.0978 h -7.06661 -7.0666 v -7.0978 -7.0978 -7.09781 h 7.0666 z m 148.398783,0 h 7.06661 7.06661 v 7.0978 h -7.06661 -7.06661 z m -183.731823,7.0978 h 7.06661 7.06661 7.06661 v 7.09781 7.0978 h -7.06661 -7.06661 -7.06661 v 7.0978 h -7.06661 v -7.0978 -7.0978 h 7.06661 z m 155.465393,0 h 7.0666 v 7.09781 7.0978 7.0978 h -7.0666 v 7.09781 7.0978 h -7.06661 v -7.0978 h -7.06661 v -7.09781 -7.0978 h -7.06661 v -7.0978 h 7.06661 7.06661 7.06661 z m -91.865916,7.09781 h 7.06661 7.066606 7.06661 7.06661 7.06661 7.06661 7.0666 7.06661 7.06661 v 7.0978 7.0978 h 7.06661 v 7.09781 h -7.06661 -7.06661 v 7.0978 h -7.06661 v 7.0978 7.0978 h -7.0666 -7.06661 v 7.0978 7.09781 7.0978 7.0978 h -7.06661 -7.06661 -7.06661 v -7.0978 -7.0978 h -7.066606 v -7.09781 h -7.06661 -7.066607 -7.06661 -7.06661 v -7.0978 h -7.06661 v -7.0978 -7.0978 -7.0978 h 7.06661 7.06661 v -7.09781 -7.0978 h 7.06661 7.066607 z m 120.132346,0 h 7.06661 7.06661 7.06661 7.06661 v 7.0978 h -7.06661 -7.06661 -7.06661 v 7.0978 h -7.06661 v 7.09781 7.0978 h -7.06661 -7.06661 -7.06661 v -7.0978 h 7.06661 v -7.09781 -7.0978 h 7.06661 7.06661 z m 98.93252,14.1956 h 7.06661 v 7.09781 7.0978 h 7.06661 7.06661 v 7.0978 h -7.06661 -7.06661 -7.06661 -7.06661 v -7.0978 h 7.06661 v -7.0978 z m 14.13322,0 h 7.06661 7.06661 7.0666 v 7.09781 h -7.0666 -7.06661 -7.06661 z m -49.46626,7.09781 h 7.06661 7.06661 v 7.0978 h 7.0666 v 7.0978 h -7.0666 -7.06661 v -7.0978 h -7.06661 z m -120.13235,7.0978 h 7.06661 7.06661 v 7.0978 h 7.06661 v 7.0978 7.0978 h -7.06661 v -7.0978 h -7.06661 -7.06661 -7.06661 v -7.0978 h 7.06661 z m 183.73183,0 h 7.0666 v 7.0978 7.0978 7.0978 7.09781 h -7.0666 v -7.09781 -7.0978 -7.0978 z m -155.46539,7.0978 h 7.0666 7.06661 7.06661 7.06661 7.06661 v 7.0978 7.0978 h -7.06661 -7.06661 -7.06661 -7.06661 v 7.09781 h -7.0666 v -7.09781 -7.0978 z m 98.93252,7.0978 h 7.06661 7.0666 7.06661 7.06661 v 7.0978 7.09781 7.0978 h -7.06661 -7.06661 -7.0666 -7.06661 v -7.0978 -7.09781 z m 35.33304,0 h 7.06661 7.06661 v 7.0978 7.09781 h -7.06661 -7.06661 v -7.09781 z M 132.85,190.93787 h 7.0666 v 7.09781 7.0978 H 132.85 v -7.0978 z m 14.13321,0 h 7.06661 7.06661 v 7.09781 7.0978 7.0978 7.09781 h -7.06661 -7.06661 -7.06661 -7.0666 v -7.09781 h 7.0666 7.06661 v -7.0978 -7.0978 z m 21.19983,7.09781 h 7.06661 v 7.0978 h 7.06661 v 7.0978 7.09781 h -7.06661 -7.06661 v -7.09781 -7.0978 z m 28.26643,0 h 7.06661 v 7.0978 7.0978 7.09781 h -7.06661 -7.06661 v -7.09781 -7.0978 h 7.06661 z m 42.39966,0 h 7.0666 7.06661 v 7.0978 h -7.06661 -7.0666 z m 21.19982,7.0978 h 7.06661 7.06661 v 7.0978 7.09781 h -7.06661 -7.06661 -7.06661 v -7.09781 h 7.06661 z m 56.53287,0 h 7.06661 7.06661 v 7.0978 7.09781 7.0978 h -7.06661 -7.06661 -7.06661 -7.06661 -7.06661 -7.0666 -7.06661 v -7.0978 -7.09781 h 7.06661 7.0666 7.06661 7.06661 7.06661 z m 21.19983,0 h 7.0666 v 7.0978 7.09781 h -7.0666 v -7.09781 z m -310.930783,7.0978 h 7.06661 7.06661 v 7.09781 h -7.06661 -7.06661 z m 183.731823,0 h 7.06661 v 7.09781 7.0978 h 7.06661 v 7.0978 h -7.06661 -7.06661 v -7.0978 -7.0978 z m -162.531993,7.09781 h 7.06661 v 7.0978 7.0978 h -7.06661 v -7.0978 z m 28.26643,7.0978 h 7.06661 7.066607 7.06661 v 7.0978 h -7.06661 -7.066607 -7.06661 z m 70.666083,0 h 7.06661 7.06661 7.06661 7.06661 v 7.0978 h -7.06661 -7.06661 -7.06661 -7.06661 z" />
  <path
     id="rect2-3-78"
     style="mix-blend-mode:normal;fill:#32324a;fill-opacity:1;fill-rule:evenodd;stroke:none;stroke-width:1;stroke-linecap:round;stroke-linejoin:round;stroke-dashoffset:19.02;stroke-opacity:1;filter:url(#filter9097-30)"
     d="M 60.433267,3.2840028 V 13.284003 h 10 10 10 10.000003 V 3.2840028 h -10.000003 -10 -10 z M 210.43327,13.284003 v 10 h -10 -10 -10 -10 -10 v 9.66601 h -3.44531 v 10 0.33399 h -6.55469 -10 -10 v -10 -10 h -10 -10 -3.84375 v -6.24024 H 96.589517 v 10 10 10 h -10 -10 v -10 -10 -10 h -10 v 10 h -10 -10 -10 v 10 10 10 h 10 v 10 9.999998 6.24024 h -6.15625 -10 v 9.999999 10.00001 10 10 h 10 10 10 v -10 h 10 10 v 10 h 10 v 10 10 10 h 10.000003 v -10 -10 -10 h 10 10 v -10 -10 h 10 10 V 93.284 h 10 10 v -9.999999 h -10 -10 -10 V 93.284 h -10 v -9.999999 -10 -9.999998 -10 h 10 10 10 6.55469 v 9.66601 9.999998 10 h 10 10 10 10 10 10 10 v 9.999999 10.00001 h 10 v 10 h -10 -10 v 10 h 10 10 10 10 v -10 h -10 v -10 -10.00001 h -10 v -9.999999 h 10 10 10 v -10 h 10 v 10 9.999999 10.00001 h -10 v 10 10 h 10 v -10 h 10 v -10 -10.00001 -9.999999 -10 -8.900388 h 7.41601 v -0.76562 h 6.0293 v 9.999998 10 9.999999 h -10 v 10.00001 h 10 10 V 93.284 h 10 10 10 10 v 10.00001 h -10 -10 -10 v 10 h -10 v 10 10 h -10 -10 -10 -10 -10 -10 v 10 h 10 v 10 10 h -10 v -10 h -10 -10 -10 v -10 h 10 v -10 h -10 -10 v 10 10 h -10 -10 v 10 10 10 10 h -10 -10 v 10 h 10 10 v 10 h 10 10 v 10 10 h 10 10 10 10 10 10 v -10 -10 h 10 10 10 v 10 10 h 10 10 10 10 v -10 -10 -10 h -10 v -10 -10 h -10 -10 v -10 h 10 10 10 v 10 10 h 10 10 v 10 10 h 2.29101 v 9.73828 h 10 10 v 10 h 10 10 10 10 v -10 h -10 -10 -10 v -10 -10 h 10 10 10 v -10 h -10 -10 -10 v -10 -10 -10 h 10 10 10 v -10 -10 -10 h -10 v -10 h -10 -10 -10 -10 v 10 10 10 h 10 v 10 10 10 h -2.29101 v -9.73828 -10 h -10 -10 -10 -10 -10 v -10 -10 -10 h -10 v -10 h 10 v -10 h 10 10 10 v -10 -10.00001 -9.999999 -10 h 10 10 10 10 10 v -9.999998 h 10 v -10 -10 -10 -10 h 10.00001 10 v 10 h 10 10 10 10 v 10 10 10 9.999998 10 9.999999 10.00001 h -10 -10 -10 -10 v 10 10 10 h 10 v -10 -10 h 10 v 10 10 h 10 10 v 10 h -10 -10 -10 -10 v 10 h 10 v 10 10 10 h -10 v 10 h 10 10 v -10 h 10 10 v 10 10 10 h -10 -10 -10 -10 v 10 h 10 10 10 10 10 v -10 h 10 10 v -10 -10 -10 -10 -10 -10 -10 -10 -10 -10 -10 h -10 -10 V 93.284 83.284001 h 10 10 v -10 -9.999998 -10 -10 -10 -10 -10 h -10 -10 -10 v 10 h -10 -10 -10 v -10 h -10 -10 -10.00001 -10 v 10 10 10 10 h -10 v 10 h -10 v -10 h -6.0293 v -9.23438 -10 h 10 10 v -10 h -10 -10 -10 -10 -10 v 10 h -10 -10 -10 -10 -10 -10 -10 v 10 10 8.90039 h -7.41601 -10 -10 v 9.999998 h -10 -10 v -9.999998 -10 -9.66601 h 3.44531 v -0.33399 h 6.55469 3.44531 v 0.33399 h 10 v -10 h 10 10 10 v -10 h -10 -10 -10 v -10 h -10 -10 -10 -10 z m 10,10 h 10 v 9.66601 h -3.44531 -6.55469 z m 20,0 h 10 v 9.66601 h -3.44531 -6.55469 z m 250.00001,0 h 10 v 10 10 10 10 9.999998 h -10 v -9.999998 -10 -10 -10 z m -383.84376,10 h 3.84375 10 v 10 h -10 v 10 10 h -3.84375 v -6.24024 -10 -10 z m 257.81445,0.76562 h 10 v 10 10 9.23438 h -3.9707 v -10 h -6.0293 v -9.23438 z m -317.814453,2.99414 h 10 10 v 10 h -10 -10 z m 123.843753,5.90625 h 6.55469 10 10 v 10 10 h 10 10 10 v 9.999998 h -10 -10 -10 -10 -10 -10 v -9.999998 -10 -9.66601 h 3.44531 z m 36.55469,0 h 3.44531 v 0.33399 h 10 v -0.33399 h 6.55469 v 10 h -10 -10 z m 87.41601,1.09961 h 10 10 v 10 9.23438 h -3.9707 v -10 h -10 -6.0293 z m 30,0 h 10 10 10 v 10 h -10 -3.9707 v -0.76562 h -10 v 0.76562 h -6.0293 z M 56.589517,57.043763 h 10 v 10 9.999998 h -10 v -9.999998 z m 20,0 h 10 10 v 10 9.999998 h -10 -10 v -9.999998 z m 263.843753,7.00586 h 3.9707 6.0293 v 9.234378 10 h -10 v -10 z m -233.84375,9.234378 h 3.84375 v 10 9.999999 10.00001 10 h -10 -10.000003 v -10 V 93.284 87.043763 h 6.15625 10.000003 V 77.043761 Z m 203.84375,0 h 10 10 v 10 h -10 -10 z M 50.433267,87.043763 h 6.15625 10 10 3.84375 V 93.284 103.28401 h -10 -10 -10 v 10 h -10 v -10 V 93.284 h 10 z M 470.43328,113.28401 h 10 10 10 v 10 h -10 -10 -10 z m -87.709,19.73828 h 10 10 v 10 h 10 v 10 h -10 -10 v -10 h -10 z m 107.709,0.26172 h 10 v 10 10 10 10 h -10 v -10 -10 -10 z m -220.00001,10 h 10 10 10 10 10 v 10 10 h -10 -10 -10 -10 v 10 h -10 v -10 -10 z m 190.00001,10 h 10 10 v 10 10 h -10 -10 v -10 z m -373.013683,4.73828 v 10 h 10 v 10 h 10.000003 10 10 10 v 10 h 10 v 10 10 h -10 -10 -10 -10 v 10 10 H 97.419597 v -10 -10 -10 h -10 -10 v -10 h -10 -10 -10 -10 v 10 10 10 h 10 10 10 v 10 10 h 10 10 10 10.000003 10 10 10 10 10 v -10 -10 -10 h 10 v -10 h -10 v -10 -10 h -10 v -10 h -10 -10 -10 -10 v -10 H 97.419597 Z m 113.013673,5.26172 h 10 v 10 10 h -10 v -10 z m 20,0 h 10 10 v 10 10 10 10 h -10 -10 -10 -10 v -10 h 10 10 v -10 -10 z m 30,10 h 10 v 10 h 10 v 10 10 h -10 -10 v -10 -10 z m 40,0 h 10 v 10 10 10 h -10 -10 v -10 -10 h 10 z m 60,0 h 10 10 v 9.73828 h -7.70899 v 0.26172 h -2.29101 -10 z m 140.00001,10 h 10 v 10 10 h -10 v -10 z m -110.00001,9.73828 h 2.29101 v 10 10 h -2.29101 v -9.73828 h -10 v -10 h 10 z m -70,0.26172 h 10 v 10 10 h 10 v 10 h -10 -10 v -10 -10 z m -263.013673,4.73828 h 10 10 v 10 h -10 -10 z m 30,10 h 10 v 10 10 h -10 v -10 z m 143.013673,5.26172 h 10 10 10 10 v 10 h -10 -10 -10 -10 z m -103.01367,4.73828 h 10 10 10 v 10 h -10 -10 -10 z"
     transform="matrix(0.70666086,0,0,0.70978034,128.06883,81.187211)" />
  <path
     id="rect2-91"
     style="fill:#633b3b;fill-opacity:1;fill-rule:evenodd;stroke-width:0.708219;stroke-linecap:round;stroke-linejoin:round;stroke-dashoffset:19.02"
     d="m 166.91605,78.890903 v 7.097804 7.097804 h -7.06661 -7.06661 -7.06661 v 7.097799 7.09781 7.0978 h 7.06661 v 7.0978 7.09781 7.0978 h -7.06661 v 7.0978 7.0978 7.09781 7.0978 h 7.06661 7.06661 7.06661 v -7.0978 h 7.06661 7.06661 v 7.0978 h 7.06661 v 7.0978 7.09781 7.0978 7.0978 h 7.0666 v 7.09781 h 7.06661 7.06661 7.06661 7.06661 v 7.0978 h 7.06661 v 7.0978 7.09781 h -7.06661 -7.06661 -7.06661 -7.06661 v 7.0978 7.0978 h -7.06661 v -7.0978 -7.0978 -7.09781 h -7.0666 -7.06661 v -7.0978 h -7.06661 -7.06661 -7.06661 -7.06661 v 7.0978 7.09781 7.0978 h 7.06661 7.06661 7.06661 v 7.0978 7.09781 h 7.06661 7.06661 7.0666 7.06661 7.06661 7.06661 7.06661 7.06661 7.06661 v -7.09781 -7.0978 -7.0978 h 7.06661 7.06661 7.06661 v 7.0978 h 7.06661 7.0666 v 7.0978 7.09781 h 7.06661 7.06661 7.06661 7.06661 7.06661 7.06661 v -7.09781 -7.0978 h 7.0666 7.06661 7.06661 v 7.0978 7.09781 h 7.06661 7.06661 7.06661 7.06661 v -7.09781 -7.0978 -7.0978 h -7.06661 v -7.09781 -7.0978 h -7.06661 -7.06661 v -7.0978 h 7.06661 7.06661 7.06661 v 7.0978 7.0978 h 7.06661 7.0666 v 7.09781 7.0978 h 7.06661 7.06661 7.06661 7.06661 v 7.0978 h 7.06661 7.06661 7.0666 7.06661 7.06661 7.06661 7.06661 7.06661 7.06661 v -7.0978 h 7.0666 7.06661 v -7.0978 -7.09781 -7.0978 -7.0978 -7.09781 -7.0978 -7.0978 -7.09781 -7.0978 -7.0978 -7.09781 h -7.06661 -7.0666 v -7.0978 -7.0978 h 7.0666 7.06661 v -7.0978 -7.09781 -7.0978 -7.0978 -7.09781 -7.097799 -7.097804 h -7.06661 -7.0666 -7.06661 v 7.097804 h -7.06661 -7.06661 -7.06661 v -7.097804 h -7.06661 -7.06661 -7.0666 -7.06661 -7.06661 -7.06661 -7.06661 -7.06661 -7.06661 v 7.097804 h -7.0666 -7.06661 -7.06661 -7.06661 -7.06661 -7.06661 -7.06661 -7.06661 -7.0666 -7.06661 v -7.097804 h -7.06661 -7.06661 -7.06661 -7.06661 -7.06661 v 7.097804 h -7.0666 -7.06661 -7.06661 -7.06661 -7.06661 v 7.097799 7.09781 h -7.06661 -7.06661 -7.06661 v -7.09781 -7.097799 h -7.06661 -7.06661 -7.06661 v -7.097804 -7.097804 h -7.0666 -7.06661 -7.06661 z m 7.06661,7.097804 h 7.06661 7.06661 v 7.097804 7.097799 7.09781 h -7.06661 -7.06661 v -7.09781 -7.097799 z m 105.99913,7.097804 h 7.06661 v 7.097799 7.09781 h -7.06661 v -7.09781 z m 14.13322,0 h 7.06661 v 7.097799 7.09781 h -7.06661 v -7.09781 z m 91.86591,0 h 7.06661 v 7.097799 7.09781 7.0978 7.0978 h -7.06661 v -7.0978 -7.0978 -7.09781 z m 14.13322,0 h 7.06661 7.06661 v 7.097799 7.09781 7.0978 h -7.06661 v 7.0978 h -7.06661 v -7.0978 -7.0978 -7.09781 z m 21.19983,0 h 7.0666 7.06661 v 7.097799 h 7.06661 7.06661 7.06661 7.06661 v 7.09781 7.0978 7.0978 7.09781 7.0978 7.0978 7.0978 h -7.06661 -7.06661 -7.06661 -7.06661 v 7.09781 7.0978 h -7.06661 v -7.0978 h -7.0666 -7.06661 -7.06661 -7.06661 v 7.0978 7.0978 7.09781 h 7.06661 v 7.0978 7.0978 7.09781 h -7.06661 -7.06661 v -7.09781 h -7.06661 -7.06661 -7.0666 -7.06661 -7.06661 v -7.0978 -7.0978 -7.09781 h -7.06661 v -7.0978 h 7.06661 v -7.0978 h 7.06661 7.06661 7.0666 v -7.09781 -7.0978 -7.0978 -7.0978 h 7.06661 7.06661 7.06661 7.06661 7.06661 v -7.09781 h 7.06661 v -7.0978 -7.0978 -7.09781 z m 49.46626,0 h 7.0666 v 7.097799 7.09781 7.0978 7.0978 7.09781 h -7.0666 v -7.09781 -7.0978 -7.0978 -7.09781 z m -317.9974,7.097799 h 7.06661 7.06661 v 7.09781 h -7.06661 -7.06661 z m 42.39965,0 h 7.06661 7.06661 v 7.09781 h -7.06661 v 7.0978 7.0978 h -7.06661 v -7.0978 -7.0978 z m 49.46627,0 h 7.06661 7.06661 7.06661 7.0666 v 7.09781 h -7.0666 -7.06661 -7.06661 -7.06661 z m 63.59948,0 h 7.06661 7.0666 7.06661 v 7.09781 7.0978 7.0978 h 7.06661 v 7.09781 7.0978 7.0978 h -7.06661 v -7.0978 -7.0978 h -7.06661 -7.0666 -7.06661 v 7.0978 h -7.06661 -7.06661 v -7.0978 -7.09781 -7.0978 h 7.06661 7.06661 v -7.0978 z m 28.26643,0 h 7.06661 7.06661 v 7.09781 7.0978 h 7.06661 v 7.0978 h -7.06661 -7.06661 v -7.0978 h -7.06661 v -7.0978 z m 21.19983,0 h 7.06661 7.06661 7.0666 v 7.09781 h -7.0666 -7.06661 -7.06661 z m -197.86505,14.19561 h 7.06661 v 7.0978 7.09781 h -7.06661 v -7.09781 z m 14.13322,0 h 7.06661 7.06661 v 7.0978 7.09781 h -7.06661 -7.06661 v -7.09781 z m 35.33304,0 h 7.06661 7.06661 7.06661 7.06661 v 7.0978 7.09781 7.0978 h -7.06661 -7.06661 -7.06661 v 7.0978 h -7.06661 v -7.0978 -7.0978 -7.09781 z m 35.33305,0 h 7.06661 7.06661 7.06661 v 7.0978 7.09781 h 7.0666 7.06661 7.06661 v 7.0978 h -7.06661 -7.06661 -7.0666 -7.06661 -7.06661 -7.06661 v -7.0978 -7.09781 z m 28.26643,0 h 7.06661 7.06661 v 7.0978 h -7.06661 -7.06661 z m 91.86592,0 h 7.06661 7.0666 v 7.0978 h -7.0666 v 7.09781 7.0978 h -7.06661 v -7.0978 -7.09781 z m -169.59862,14.19561 h 7.06661 v 7.0978 7.0978 7.0978 7.09781 h -7.06661 -7.0666 v -7.09781 -7.0978 -7.0978 h 7.0666 z m 148.39879,0 h 7.06661 7.06661 v 7.0978 h -7.06661 -7.06661 z m -183.73183,7.0978 h 7.06661 7.06661 7.06661 v 7.0978 7.0978 h -7.06661 -7.06661 -7.06661 v 7.09781 h -7.06661 v -7.09781 -7.0978 h 7.06661 z m 155.4654,0 h 7.0666 v 7.0978 7.0978 7.09781 h -7.0666 v 7.0978 7.0978 h -7.06661 v -7.0978 h -7.06661 v -7.0978 -7.09781 h -7.06661 v -7.0978 h 7.06661 7.06661 7.06661 z m -91.86592,7.0978 h 7.06661 7.06661 7.06661 7.06661 7.06661 7.06661 7.0666 7.06661 7.06661 v 7.0978 7.09781 h 7.06661 v 7.0978 h -7.06661 -7.06661 v 7.0978 h -7.06661 v 7.09781 7.0978 h -7.0666 -7.06661 v 7.0978 7.09781 7.0978 7.0978 h -7.06661 -7.06661 -7.06661 v -7.0978 -7.0978 h -7.06661 v -7.09781 h -7.06661 -7.06661 -7.06661 -7.06661 v -7.0978 h -7.06661 v -7.0978 -7.09781 -7.0978 h 7.06661 7.06661 v -7.0978 -7.09781 h 7.06661 7.06661 z m 120.13235,0 h 7.06661 7.06661 7.06661 7.06661 v 7.0978 h -7.06661 -7.06661 -7.06661 v 7.09781 h -7.06661 v 7.0978 7.0978 h -7.06661 -7.06661 -7.06661 v -7.0978 h 7.06661 v -7.0978 -7.09781 h 7.06661 7.06661 z m 98.93252,14.19561 h 7.06661 v 7.0978 7.0978 h 7.06661 7.06661 v 7.09781 h -7.06661 -7.06661 -7.06661 -7.06661 v -7.09781 h 7.06661 v -7.0978 z m 14.13322,0 h 7.06661 7.06661 7.0666 v 7.0978 h -7.0666 -7.06661 -7.06661 z m -49.46626,7.0978 h 7.06661 7.06661 v 7.0978 h 7.0666 v 7.09781 h -7.0666 -7.06661 v -7.09781 h -7.06661 z m -120.13235,7.0978 h 7.06661 7.06661 v 7.09781 h 7.06661 v 7.0978 7.0978 h -7.06661 v -7.0978 h -7.06661 -7.06661 -7.06661 v -7.0978 h 7.06661 z m 183.73183,0 h 7.0666 v 7.09781 7.0978 7.0978 7.09781 h -7.0666 v -7.09781 -7.0978 -7.0978 z m -155.46539,7.09781 h 7.0666 7.06661 7.06661 7.06661 7.06661 v 7.0978 7.0978 h -7.06661 -7.06661 -7.06661 -7.06661 v 7.09781 h -7.0666 v -7.09781 -7.0978 z m 98.93252,7.0978 h 7.06661 7.0666 7.06661 7.06661 v 7.0978 7.09781 7.0978 h -7.06661 -7.06661 -7.0666 -7.06661 v -7.0978 -7.09781 z m 35.33304,0 h 7.06661 7.06661 v 7.0978 7.09781 h -7.06661 -7.06661 v -7.09781 z m -183.73182,7.0978 h 7.0666 v 7.09781 7.0978 h -7.0666 v -7.0978 z m 14.13321,0 h 7.06661 7.06661 v 7.09781 7.0978 7.0978 7.09781 h -7.06661 -7.06661 -7.06661 -7.0666 v -7.09781 h 7.0666 7.06661 v -7.0978 -7.0978 z m 21.19983,7.09781 h 7.06661 v 7.0978 h 7.06661 v 7.0978 7.09781 h -7.06661 -7.06661 v -7.09781 -7.0978 z m 28.26643,0 h 7.06661 v 7.0978 7.0978 7.09781 h -7.06661 -7.06661 v -7.09781 -7.0978 h 7.06661 z m 42.39966,0 h 7.0666 7.06661 v 7.0978 h -7.06661 -7.0666 z m 21.19982,7.0978 h 7.06661 7.06661 v 7.0978 7.09781 h -7.06661 -7.06661 -7.06661 v -7.09781 h 7.06661 z m 56.53287,0 h 7.06661 7.06661 v 7.0978 7.09781 7.0978 h -7.06661 -7.06661 -7.06661 -7.06661 -7.06661 -7.0666 -7.06661 v -7.0978 -7.09781 h 7.06661 7.0666 7.06661 7.06661 7.06661 z m 21.19983,0 h 7.0666 v 7.0978 7.09781 h -7.0666 v -7.09781 z m -310.93079,7.0978 h 7.06661 7.06661 v 7.09781 h -7.06661 -7.06661 z m 183.73183,0 h 7.06661 v 7.09781 7.0978 h 7.06661 v 7.0978 h -7.06661 -7.06661 v -7.0978 -7.0978 z m -162.532,7.09781 h 7.06661 v 7.0978 7.0978 h -7.06661 v -7.0978 z m 28.26643,7.0978 h 7.06661 7.06661 7.06661 v 7.0978 h -7.06661 -7.06661 -7.06661 z m 70.66609,0 h 7.06661 7.06661 7.06661 7.06661 v 7.0978 h -7.06661 -7.06661 -7.06661 -7.06661 z" />
  <path
     id="rect2-3-25"
     style="mix-blend-mode:normal;fill:#32324a;fill-opacity:1;fill-rule:evenodd;stroke:none;stroke-width:1;stroke-linecap:round;stroke-linejoin:round;stroke-dashoffset:19.02;stroke-opacity:1;filter:url(#filter9097-5)"
     d="M 60.433267,3.2840028 V 13.284003 h 10 10 10 10.000003 V 3.2840028 h -10.000003 -10 -10 z M 210.43327,13.284003 v 10 h -10 -10 -10 -10 -10 v 9.66601 h -3.44531 v 10 0.33399 h -6.55469 -10 -10 v -10 -10 h -10 -10 -3.84375 v -6.24024 H 96.589517 v 10 10 10 h -10 -10 v -10 -10 -10 h -10 v 10 h -10 -10 -10 v 10 10 10 h 10 v 10 9.999998 6.24024 h -6.15625 -10 v 9.999999 10.00001 10 10 h 10 10 10 v -10 h 10 10 v 10 h 10 v 10 10 10 h 10.000003 v -10 -10 -10 h 10 10 v -10 -10 h 10 10 V 93.284 h 10 10 v -9.999999 h -10 -10 -10 V 93.284 h -10 v -9.999999 -10 -9.999998 -10 h 10 10 10 6.55469 v 9.66601 9.999998 10 h 10 10 10 10 10 10 10 v 9.999999 10.00001 h 10 v 10 h -10 -10 v 10 h 10 10 10 10 v -10 h -10 v -10 -10.00001 h -10 v -9.999999 h 10 10 10 v -10 h 10 v 10 9.999999 10.00001 h -10 v 10 10 h 10 v -10 h 10 v -10 -10.00001 -9.999999 -10 -8.900388 h 7.41601 v -0.76562 h 6.0293 v 9.999998 10 9.999999 h -10 v 10.00001 h 10 10 V 93.284 h 10 10 10 10 v 10.00001 h -10 -10 -10 v 10 h -10 v 10 10 h -10 -10 -10 -10 -10 -10 v 10 h 10 v 10 10 h -10 v -10 h -10 -10 -10 v -10 h 10 v -10 h -10 -10 v 10 10 h -10 -10 v 10 10 10 10 h -10 -10 v 10 h 10 10 v 10 h 10 10 v 10 10 h 10 10 10 10 10 10 v -10 -10 h 10 10 10 v 10 10 h 10 10 10 10 v -10 -10 -10 h -10 v -10 -10 h -10 -10 v -10 h 10 10 10 v 10 10 h 10 10 v 10 10 h 2.29101 v 9.73828 h 10 10 v 10 h 10 10 10 10 v -10 h -10 -10 -10 v -10 -10 h 10 10 10 v -10 h -10 -10 -10 v -10 -10 -10 h 10 10 10 v -10 -10 -10 h -10 v -10 h -10 -10 -10 -10 v 10 10 10 h 10 v 10 10 10 h -2.29101 v -9.73828 -10 h -10 -10 -10 -10 -10 v -10 -10 -10 h -10 v -10 h 10 v -10 h 10 10 10 v -10 -10.00001 -9.999999 -10 h 10 10 10 10 10 v -9.999998 h 10 v -10 -10 -10 -10 h 10.00001 10 v 10 h 10 10 10 10 v 10 10 10 9.999998 10 9.999999 10.00001 h -10 -10 -10 -10 v 10 10 10 h 10 v -10 -10 h 10 v 10 10 h 10 10 v 10 h -10 -10 -10 -10 v 10 h 10 v 10 10 10 h -10 v 10 h 10 10 v -10 h 10 10 v 10 10 10 h -10 -10 -10 -10 v 10 h 10 10 10 10 10 v -10 h 10 10 v -10 -10 -10 -10 -10 -10 -10 -10 -10 -10 -10 h -10 -10 V 93.284 83.284001 h 10 10 v -10 -9.999998 -10 -10 -10 -10 -10 h -10 -10 -10 v 10 h -10 -10 -10 v -10 h -10 -10 -10.00001 -10 v 10 10 10 10 h -10 v 10 h -10 v -10 h -6.0293 v -9.23438 -10 h 10 10 v -10 h -10 -10 -10 -10 -10 v 10 h -10 -10 -10 -10 -10 -10 -10 v 10 10 8.90039 h -7.41601 -10 -10 v 9.999998 h -10 -10 v -9.999998 -10 -9.66601 h 3.44531 v -0.33399 h 6.55469 3.44531 v 0.33399 h 10 v -10 h 10 10 10 v -10 h -10 -10 -10 v -10 h -10 -10 -10 -10 z m 10,10 h 10 v 9.66601 h -3.44531 -6.55469 z m 20,0 h 10 v 9.66601 h -3.44531 -6.55469 z m 250.00001,0 h 10 v 10 10 10 10 9.999998 h -10 v -9.999998 -10 -10 -10 z m -383.84376,10 h 3.84375 10 v 10 h -10 v 10 10 h -3.84375 v -6.24024 -10 -10 z m 257.81445,0.76562 h 10 v 10 10 9.23438 h -3.9707 v -10 h -6.0293 v -9.23438 z m -317.814453,2.99414 h 10 10 v 10 h -10 -10 z m 123.843753,5.90625 h 6.55469 10 10 v 10 10 h 10 10 10 v 9.999998 h -10 -10 -10 -10 -10 -10 v -9.999998 -10 -9.66601 h 3.44531 z m 36.55469,0 h 3.44531 v 0.33399 h 10 v -0.33399 h 6.55469 v 10 h -10 -10 z m 87.41601,1.09961 h 10 10 v 10 9.23438 h -3.9707 v -10 h -10 -6.0293 z m 30,0 h 10 10 10 v 10 h -10 -3.9707 v -0.76562 h -10 v 0.76562 h -6.0293 z M 56.589517,57.043763 h 10 v 10 9.999998 h -10 v -9.999998 z m 20,0 h 10 10 v 10 9.999998 h -10 -10 v -9.999998 z m 263.843753,7.00586 h 3.9707 6.0293 v 9.234378 10 h -10 v -10 z m -233.84375,9.234378 h 3.84375 v 10 9.999999 10.00001 10 h -10 -10.000003 v -10 V 93.284 87.043763 h 6.15625 10.000003 V 77.043761 Z m 203.84375,0 h 10 10 v 10 h -10 -10 z M 50.433267,87.043763 h 6.15625 10 10 3.84375 V 93.284 103.28401 h -10 -10 -10 v 10 h -10 v -10 V 93.284 h 10 z M 470.43328,113.28401 h 10 10 10 v 10 h -10 -10 -10 z m -87.709,19.73828 h 10 10 v 10 h 10 v 10 h -10 -10 v -10 h -10 z m 107.709,0.26172 h 10 v 10 10 10 10 h -10 v -10 -10 -10 z m -220.00001,10 h 10 10 10 10 10 v 10 10 h -10 -10 -10 -10 v 10 h -10 v -10 -10 z m 190.00001,10 h 10 10 v 10 10 h -10 -10 v -10 z m -373.013683,4.73828 v 10 h 10 v 10 h 10.000003 10 10 10 v 10 h 10 v 10 10 h -10 -10 -10 -10 v 10 10 H 97.419597 v -10 -10 -10 h -10 -10 v -10 h -10 -10 -10 -10 v 10 10 10 h 10 10 10 v 10 10 h 10 10 10 10.000003 10 10 10 10 10 v -10 -10 -10 h 10 v -10 h -10 v -10 -10 h -10 v -10 h -10 -10 -10 -10 v -10 H 97.419597 Z m 113.013673,5.26172 h 10 v 10 10 h -10 v -10 z m 20,0 h 10 10 v 10 10 10 10 h -10 -10 -10 -10 v -10 h 10 10 v -10 -10 z m 30,10 h 10 v 10 h 10 v 10 10 h -10 -10 v -10 -10 z m 40,0 h 10 v 10 10 10 h -10 -10 v -10 -10 h 10 z m 60,0 h 10 10 v 9.73828 h -7.70899 v 0.26172 h -2.29101 -10 z m 140.00001,10 h 10 v 10 10 h -10 v -10 z m -110.00001,9.73828 h 2.29101 v 10 10 h -2.29101 v -9.73828 h -10 v -10 h 10 z m -70,0.26172 h 10 v 10 10 h 10 v 10 h -10 -10 v -10 -10 z m -263.013673,4.73828 h 10 10 v 10 h -10 -10 z m 30,10 h 10 v 10 10 h -10 v -10 z m 143.013673,5.26172 h 10 10 10 10 v 10 h -10 -10 -10 -10 z m -103.01367,4.73828 h 10 10 10 v 10 h -10 -10 -10 z"
     transform="matrix(0.70666086,0,0,0.70978034,-3.1787821,5.8533246)" />
  <path
     id="rect2-7"
     style="fill:#515151;fill-opacity:1;fill-rule:evenodd;stroke-width:0.708219;stroke-linecap:round;stroke-linejoin:round;stroke-dashoffset:19.02"
     d="m 35.668438,3.5570166 v 7.0978044 7.097804 h -7.06661 -7.06661 -7.06661 v 7.097803 7.097803 7.097804 h 7.06661 v 7.097806 7.0978 7.0978 h -7.06661 v 7.09781 7.0978 7.0978 7.0978 h 7.06661 7.06661 7.06661 v -7.0978 h 7.06661 7.06661 v 7.0978 h 7.06661 v 7.09781 7.097799 7.0978 7.0978 h 7.0666 v 7.09781 h 7.06661 7.06661 7.06661 7.06661 v 7.0978 h 7.06661 v 7.0978 7.09781 h -7.06661 -7.06661 -7.06661 -7.06661 v 7.0978 7.0978 h -7.06661 v -7.0978 -7.0978 -7.09781 h -7.0666 -7.06661 v -7.0978 h -7.06661 -7.06661 -7.06661 -7.06661 v 7.0978 7.09781 7.0978 h 7.06661 7.06661 7.06661 v 7.0978 7.09781 h 7.06661 7.06661 7.0666 7.06661 7.06661 7.06661 7.06661 7.06661 7.066612 v -7.09781 -7.0978 -7.0978 h 7.06661 7.06661 7.06661 v 7.0978 h 7.06661 7.0666 v 7.0978 7.09781 h 7.06661 7.06661 7.06661 7.06661 7.06661 7.06661 v -7.09781 -7.0978 h 7.0666 7.06661 7.06661 v 7.0978 7.09781 h 7.06661 7.06661 7.06661 7.06661 v -7.09781 -7.0978 -7.0978 h -7.06661 v -7.09781 -7.0978 h -7.06661 -7.06661 v -7.0978 h 7.06661 7.06661 7.06661 v 7.0978 7.0978 h 7.06661 7.0666 v 7.09781 7.0978 h 7.06661 7.06661 7.06661 7.06661 v 7.0978 h 7.06661 7.06661 7.0666 7.06661 7.06661 7.06661 7.06661 7.06661 7.06661 v -7.0978 h 7.0666 7.06661 v -7.0978 -7.09781 -7.0978 -7.0978 -7.09781 -7.0978 -7.0978 -7.097799 -7.09781 -7.0978 -7.0978 h -7.06661 -7.0666 v -7.0978 -7.09781 h 7.0666 7.06661 v -7.0978 -7.0978 -7.097806 -7.097804 -7.097803 -7.097803 -7.097804 h -7.06661 -7.0666 -7.06661 v 7.097804 h -7.06661 -7.06661 -7.06661 v -7.097804 h -7.06661 -7.06661 -7.0666 -7.06661 -7.06661 -7.06661 -7.06661 -7.06661 -7.06661 v 7.097804 h -7.0666 -7.06661 -7.06661 -7.06661 -7.06661 -7.06661 -7.06661 -7.06661 -7.0666 -7.06661 v -7.097804 h -7.06661 -7.06661 -7.06661 -7.06661 -7.06661 v 7.097804 h -7.0666 -7.06661 -7.06661 -7.06661 -7.06661 v 7.097803 7.097803 h -7.066612 -7.06661 -7.06661 v -7.097803 -7.097803 h -7.06661 -7.06661 -7.06661 V 10.654821 3.5570166 h -7.0666 -7.06661 -7.06661 z m 7.06661,7.0978044 h 7.06661 7.06661 v 7.097804 7.097803 7.097803 h -7.06661 -7.06661 v -7.097803 -7.097803 z m 105.999132,7.097804 h 7.06661 v 7.097803 7.097803 h -7.06661 v -7.097803 z m 14.13322,0 h 7.06661 v 7.097803 7.097803 h -7.06661 v -7.097803 z m 91.86591,0 h 7.06661 v 7.097803 7.097803 7.097804 7.097806 h -7.06661 v -7.097806 -7.097804 -7.097803 z m 14.13322,0 h 7.06661 7.06661 v 7.097803 7.097803 7.097804 h -7.06661 v 7.097806 h -7.06661 v -7.097806 -7.097804 -7.097803 z m 21.19983,0 h 7.0666 7.06661 v 7.097803 h 7.06661 7.06661 7.06661 7.06661 v 7.097803 7.097804 7.097806 7.0978 7.0978 7.09781 7.0978 h -7.06661 -7.06661 -7.06661 -7.06661 v 7.0978 7.0978 h -7.06661 v -7.0978 h -7.0666 -7.06661 -7.06661 -7.06661 v 7.0978 7.09781 7.097799 h 7.06661 v 7.0978 7.0978 7.09781 h -7.06661 -7.06661 v -7.09781 h -7.06661 -7.06661 -7.0666 -7.06661 -7.06661 v -7.0978 -7.0978 -7.097799 h -7.06661 v -7.09781 h 7.06661 v -7.0978 h 7.06661 7.06661 7.0666 v -7.0978 -7.0978 -7.09781 -7.0978 h 7.06661 7.06661 7.06661 7.06661 7.06661 v -7.0978 h 7.06661 v -7.097806 -7.097804 -7.097803 z m 49.46626,0 h 7.0666 v 7.097803 7.097803 7.097804 7.097806 7.0978 h -7.0666 v -7.0978 -7.097806 -7.097804 -7.097803 z M 21.535218,24.850428 h 7.06661 7.06661 v 7.097803 h -7.06661 -7.06661 z m 42.39965,0 h 7.06661 7.06661 v 7.097803 h -7.06661 v 7.097804 7.097806 h -7.06661 v -7.097806 -7.097804 z m 49.466272,0 h 7.06661 7.06661 7.06661 7.0666 v 7.097803 h -7.0666 -7.06661 -7.06661 -7.06661 z m 63.59948,0 h 7.06661 7.0666 7.06661 v 7.097803 7.097804 7.097806 h 7.06661 v 7.0978 7.0978 7.09781 h -7.06661 v -7.09781 -7.0978 h -7.06661 -7.0666 -7.06661 v 7.0978 h -7.06661 -7.06661 v -7.0978 -7.0978 -7.097806 h 7.06661 7.06661 v -7.097804 z m 28.26643,0 h 7.06661 7.06661 v 7.097803 7.097804 h 7.06661 v 7.097806 h -7.06661 -7.06661 v -7.097806 h -7.06661 v -7.097804 z m 21.19983,0 h 7.06661 7.06661 7.0666 v 7.097803 h -7.0666 -7.06661 -7.06661 z M 28.601828,39.046035 h 7.06661 v 7.097806 7.0978 h -7.06661 v -7.0978 z m 14.13322,0 h 7.06661 7.06661 v 7.097806 7.0978 h -7.06661 -7.06661 v -7.0978 z m 35.33304,0 h 7.06661 7.06661 7.06661 7.066612 v 7.097806 7.0978 7.0978 h -7.066612 -7.06661 -7.06661 v 7.09781 h -7.06661 v -7.09781 -7.0978 -7.0978 z m 35.333052,0 h 7.06661 7.06661 7.06661 v 7.097806 7.0978 h 7.0666 7.06661 7.06661 v 7.0978 h -7.06661 -7.06661 -7.0666 -7.06661 -7.06661 -7.06661 v -7.0978 -7.0978 z m 28.26643,0 h 7.06661 7.06661 v 7.097806 h -7.06661 -7.06661 z m 91.86592,0 h 7.06661 7.0666 v 7.097806 h -7.0666 v 7.0978 7.0978 h -7.06661 v -7.0978 -7.0978 z M 63.934868,53.241641 h 7.06661 v 7.0978 7.09781 7.0978 7.0978 h -7.06661 -7.0666 v -7.0978 -7.0978 -7.09781 h 7.0666 z m 148.398792,0 h 7.06661 7.06661 v 7.0978 h -7.06661 -7.06661 z m -183.731832,7.0978 h 7.06661 7.06661 7.06661 v 7.09781 7.0978 h -7.06661 -7.06661 -7.06661 v 7.0978 h -7.06661 v -7.0978 -7.0978 h 7.06661 z m 155.465402,0 h 7.0666 v 7.09781 7.0978 7.0978 h -7.0666 v 7.0978 7.09781 h -7.06661 v -7.09781 h -7.06661 v -7.0978 -7.0978 h -7.06661 v -7.0978 h 7.06661 7.06661 7.06661 z m -91.865922,7.09781 h 7.06661 7.066612 7.06661 7.06661 7.06661 7.06661 7.0666 7.06661 7.06661 v 7.0978 7.0978 h 7.06661 v 7.0978 h -7.06661 -7.06661 v 7.09781 h -7.06661 v 7.097799 7.0978 h -7.0666 -7.06661 v 7.0978 7.09781 7.0978 7.0978 h -7.06661 -7.06661 -7.06661 v -7.0978 -7.0978 h -7.066612 v -7.09781 h -7.06661 -7.06661 -7.06661 -7.06661 v -7.0978 h -7.06661 v -7.0978 -7.097799 -7.09781 h 7.06661 7.06661 v -7.0978 -7.0978 h 7.06661 7.06661 z m 120.132352,0 h 7.06661 7.06661 7.06661 7.06661 v 7.0978 h -7.06661 -7.06661 -7.06661 v 7.0978 h -7.06661 v 7.0978 7.09781 h -7.06661 -7.06661 -7.06661 v -7.09781 h 7.06661 v -7.0978 -7.0978 h 7.06661 7.06661 z m 98.93252,14.1956 h 7.06661 v 7.0978 7.09781 h 7.06661 7.06661 v 7.097799 h -7.06661 -7.06661 -7.06661 -7.06661 v -7.097799 h 7.06661 v -7.09781 z m 14.13322,0 h 7.06661 7.06661 7.0666 v 7.0978 h -7.0666 -7.06661 -7.06661 z m -49.46626,7.0978 h 7.06661 7.06661 v 7.09781 h 7.0666 v 7.097799 h -7.0666 -7.06661 v -7.097799 h -7.06661 z m -120.13235,7.09781 h 7.06661 7.06661 v 7.097799 h 7.06661 v 7.0978 7.0978 h -7.06661 v -7.0978 h -7.06661 -7.06661 -7.06661 v -7.0978 h 7.06661 z m 183.73183,0 h 7.0666 v 7.097799 7.0978 7.0978 7.09781 h -7.0666 v -7.09781 -7.0978 -7.0978 z m -155.46539,7.097799 h 7.0666 7.06661 7.06661 7.06661 7.06661 v 7.0978 7.0978 h -7.06661 -7.06661 -7.06661 -7.06661 v 7.09781 h -7.0666 v -7.09781 -7.0978 z m 98.93252,7.0978 h 7.06661 7.0666 7.06661 7.06661 v 7.0978 7.09781 7.0978 h -7.06661 -7.06661 -7.0666 -7.06661 v -7.0978 -7.09781 z m 35.33304,0 h 7.06661 7.06661 v 7.0978 7.09781 h -7.06661 -7.06661 v -7.09781 z m -183.73182,7.0978 h 7.0666 v 7.09781 7.0978 h -7.0666 v -7.0978 z m 14.13321,0 h 7.06661 7.06661 v 7.09781 7.0978 7.0978 7.09781 h -7.06661 -7.06661 -7.06661 -7.0666 v -7.09781 h 7.0666 7.06661 v -7.0978 -7.0978 z m 21.19983,7.09781 h 7.06661 v 7.0978 h 7.06661 v 7.0978 7.09781 h -7.06661 -7.06661 v -7.09781 -7.0978 z m 28.26643,0 h 7.06661 v 7.0978 7.0978 7.09781 h -7.06661 -7.06661 v -7.09781 -7.0978 h 7.06661 z m 42.39966,0 h 7.0666 7.06661 v 7.0978 h -7.06661 -7.0666 z m 21.19982,7.0978 h 7.06661 7.06661 v 7.0978 7.09781 h -7.06661 -7.06661 -7.06661 v -7.09781 h 7.06661 z m 56.53287,0 h 7.06661 7.06661 v 7.0978 7.09781 7.0978 h -7.06661 -7.06661 -7.06661 -7.06661 -7.06661 -7.0666 -7.06661 v -7.0978 -7.09781 h 7.06661 7.0666 7.06661 7.06661 7.06661 z m 21.19983,0 h 7.0666 v 7.0978 7.09781 h -7.0666 v -7.09781 z m -310.930792,7.0978 h 7.06661 7.06661 v 7.09781 h -7.06661 -7.06661 z m 183.731832,0 h 7.06661 v 7.09781 7.0978 h 7.06661 v 7.0978 h -7.06661 -7.06661 v -7.0978 -7.0978 z m -162.532002,7.09781 h 7.06661 v 7.0978 7.0978 h -7.06661 v -7.0978 z m 28.26643,7.0978 h 7.06661 7.06661 7.06661 v 7.0978 h -7.06661 -7.06661 -7.06661 z m 70.666092,0 h 7.06661 7.06661 7.06661 7.06661 v 7.0978 h -7.06661 -7.06661 -7.06661 -7.06661 z" />
</svg>
